<?xml version="1.0" encoding="utf-8"?>
<!-- Generator: Adobe Illustrator 16.0.0, SVG Export Plug-In . SVG Version: 6.00 Build 0)  -->
<!DOCTYPE svg PUBLIC "-//W3C//DTD SVG 1.1//EN" "http://www.w3.org/Graphics/SVG/1.1/DTD/svg11.dtd">
<svg version="1.1" id="Layer_1" xmlns="http://www.w3.org/2000/svg" xmlns:xlink="http://www.w3.org/1999/xlink" x="0px" y="0px"
	 width="1280px" height="720px" viewBox="0 0 1280 720" enable-background="new 0 0 1280 720" xml:space="preserve">
<g>
	<g>
		<path fill="#3CC808" d="M600.972,100.603l15.704,0.084c0.478,5.338-0.074,10.708,0.223,16.055
			c5.271-0.161,10.554-0.156,15.823,0.06c-0.018,5.331-0.057,10.662-0.082,15.992c-5.364-0.029-10.729-0.058-16.093-0.086
			c-0.043-5.227,0.194-10.458,0.019-15.682c-0.044-0.045-0.135-0.136-0.18-0.182c-5.222-0.234-10.455-0.042-15.681-0.152
			C600.807,111.331,600.565,105.957,600.972,100.603z"/>
		<path fill="#3CC808" d="M696.563,101.116l16.143,0.086c0.125,5.363-0.009,10.729-0.012,16.091
			c-5.418-0.016-10.837-0.065-16.254-0.08c-0.039,5.309-0.059,10.617-0.088,15.923c-5.366-0.029-10.73-0.058-16.094-0.086
			c0.034-5.329,0.047-10.659,0.089-15.989c5.272-0.146,10.553-0.122,15.823,0.106C696.523,111.822,696.028,106.449,696.563,101.116z
			"/>
	</g>
	<g>
		<g>
			<path fill="#EC6109" d="M568.861,116.472c5.354-0.194,10.725-0.126,16.076,0.123c-0.04,10.589-0.119,21.177-0.164,31.766
				c5.218-0.048,10.443-0.1,15.659,0.152c0.244-5.292,0.104-10.592,0.191-15.886c5.308,0.019,10.615,0.055,15.923,0.082
				c5.364,0.029,10.729,0.058,16.093,0.086c15.873,0.085,31.745,0.17,47.618,0.255c5.364,0.028,10.728,0.057,16.094,0.086
				c5.418,0.033,10.835,0.052,16.256,0.091c-0.016,5.252-0.061,10.503-0.078,15.756c5.306,0.035,10.614,0.063,15.921,0.085
				c0.063-10.589,0.118-21.178,0.168-31.767c5.286-0.187,10.577,0.035,15.867-0.012c0.116,4.15,0.004,8.303-0.003,12.455
				c-0.072,15.794-0.18,31.589-0.241,47.385c-6.639,0.126-13.279-0.055-19.918-0.039c-0.042,6.614-0.075,13.227-0.098,19.842
				c-5.29,0.129-10.583-0.03-15.872-0.029c-0.193,6.636-0.1,13.278-0.17,19.917c5.224,0.111,10.458-0.082,15.679,0.152
				c0.044,0.045,0.135,0.136,0.179,0.182c0.161,4.673-0.032,9.354,0.006,14.031c-0.136,0.665,0.331,2.247-1.02,1.8
				c-4.429,0.041-8.856-0.049-13.284-0.044c-0.672-0.133-2.243,0.332-1.801-1.02c-0.053-4.978,0.09-9.955,0.066-14.93
				c-5.287-0.038-10.571-0.061-15.857-0.078c-0.18-6.699,0.174-13.399-0.062-20.096c-23.882-0.108-47.764-0.258-71.646-0.372
				c-0.263,6.685-0.095,13.378-0.204,20.068c-5.227,0.055-10.457-0.196-15.68-0.016c-0.045,0.046-0.135,0.135-0.182,0.18
				c-0.234,5.221-0.041,10.454-0.152,15.68c-5.308-0.023-10.616-0.054-15.923-0.085c0.016-5.359,0.085-10.719,0.04-16.079
				c5.313-0.028,10.626,0.109,15.938,0.024c0.102-6.014,0.09-12.03,0.148-18.044c-0.126-0.672,0.355-2.241-1.001-1.811
				c-6.359-0.104-12.719-0.04-19.078-0.117c0.023-6.635,0.076-13.269,0.1-19.903c-5.286-0.038-10.572-0.06-15.858-0.078
				c-0.07-1.938-0.048-3.879-0.044-5.817C568.677,152.455,568.727,134.464,568.861,116.472z M620.646,148.712
				c-0.09,5.222-0.134,10.448-0.069,15.672c5.275,0.091,10.554,0.13,15.83,0.068c0.057-5.235,0.24-10.477-0.014-15.706
				C631.145,148.735,625.895,148.628,620.646,148.712z M676.688,148.962c-0.033,5.308-0.061,10.616-0.085,15.923
				c5.242,0.007,10.482,0.12,15.725,0.034c0.078-5.291,0.194-10.587-0.065-15.874C687.072,149.012,681.88,148.986,676.688,148.962z"
				/>
		</g>
	</g>
</g>
<g>
	<path fill="#EC6109" d="M399.138,339.238V285.24c0-0.327,0.082-0.681,0.245-1.063c0.164-0.381,0.381-0.722,0.655-1.022
		c0.272-0.299,0.585-0.545,0.941-0.736c0.354-0.191,0.696-0.287,1.023-0.287h36.817c0.381,0,0.79,0.096,1.227,0.287
		c0.436,0.191,0.831,0.437,1.187,0.736c0.354,0.3,0.64,0.654,0.859,1.063c0.217,0.409,0.327,0.805,0.327,1.186v20.617
		c0,0.382,0.109,0.696,0.327,0.941c0.217,0.246,0.504,0.45,0.859,0.614c0.354,0.164,0.749,0.3,1.186,0.409
		c0.436,0.11,0.886,0.232,1.35,0.368c0.463,0.137,0.913,0.286,1.35,0.45c0.436,0.164,0.818,0.396,1.145,0.696
		c0.328,0.3,0.6,0.654,0.818,1.063c0.217,0.409,0.327,0.941,0.327,1.595v27.49c0,0.164-0.028,0.341-0.082,0.532
		c-0.055,0.192-0.123,0.368-0.205,0.532c-0.082,0.164-0.178,0.3-0.287,0.409c-0.11,0.11-0.245,0.164-0.409,0.164h-3.845
		c-0.218,0-0.423-0.041-0.613-0.123c-0.192-0.082-0.382-0.19-0.573-0.328c-0.192-0.135-0.341-0.299-0.45-0.491
		c-0.11-0.19-0.164-0.368-0.164-0.532v-23.072c0-0.217-0.082-0.45-0.246-0.695c-0.164-0.246-0.368-0.45-0.613-0.614
		c-0.246-0.164-0.505-0.286-0.777-0.368c-0.273-0.082-0.546-0.123-0.818-0.123h-27.162c-0.219,0-0.464,0.055-0.736,0.164
		c-0.274,0.11-0.532,0.246-0.777,0.409c-0.245,0.164-0.437,0.368-0.573,0.614c-0.137,0.245-0.204,0.505-0.204,0.777v22.581
		c0,0.218-0.069,0.437-0.205,0.654c-0.137,0.219-0.301,0.409-0.491,0.573c-0.192,0.164-0.409,0.3-0.655,0.409
		c-0.245,0.11-0.478,0.164-0.695,0.164h-7.936c-0.219,0-0.464-0.054-0.736-0.164c-0.274-0.109-0.505-0.258-0.696-0.45
		c-0.192-0.19-0.355-0.409-0.491-0.654C399.206,339.77,399.138,339.511,399.138,339.238z M407.646,289.413
		c-0.327,0-0.601,0.11-0.818,0.327c-0.219,0.218-0.327,0.464-0.327,0.736v15.954c0,0.273,0.109,0.519,0.327,0.736
		c0.217,0.219,0.491,0.327,0.818,0.327h26.426c0.328,0,0.6-0.108,0.818-0.327c0.217-0.217,0.327-0.463,0.327-0.736v-15.954
		c0-0.272-0.11-0.518-0.327-0.736c-0.219-0.217-0.491-0.327-0.818-0.327H407.646z"/>
	<path fill="#EC6109" d="M456.653,303.158c0-0.327,0.095-0.655,0.286-0.982c0.19-0.327,0.45-0.613,0.777-0.859
		s0.667-0.436,1.023-0.573c0.354-0.135,0.722-0.205,1.104-0.205h31.335c0.327,0,0.681,0.082,1.063,0.246
		c0.381,0.164,0.722,0.368,1.022,0.613c0.299,0.246,0.559,0.546,0.777,0.9c0.217,0.355,0.327,0.723,0.327,1.104v15.954
		c0,0.273-0.082,0.532-0.245,0.777c-0.164,0.245-0.368,0.478-0.614,0.695c-0.246,0.219-0.505,0.396-0.777,0.532
		c-0.273,0.137-0.546,0.205-0.818,0.205h-22.499c-0.274,0-0.519,0.11-0.736,0.327c-0.219,0.219-0.328,0.464-0.328,0.736v11.208
		c0,0.164,0.068,0.341,0.205,0.532c0.136,0.191,0.313,0.286,0.532,0.286h16.936c0.164,0,0.34-0.095,0.532-0.286
		c0.19-0.191,0.286-0.368,0.286-0.532v-4.09c0-0.217,0.109-0.436,0.327-0.655c0.217-0.217,0.436-0.327,0.655-0.327h5.318
		c0.164,0,0.313,0.028,0.45,0.082c0.136,0.055,0.258,0.137,0.368,0.245c0.109,0.11,0.205,0.233,0.287,0.368
		c0.082,0.137,0.123,0.287,0.123,0.45v9c0,0.273-0.082,0.546-0.245,0.818c-0.164,0.274-0.355,0.532-0.573,0.777
		c-0.219,0.246-0.464,0.438-0.736,0.573c-0.274,0.137-0.546,0.205-0.818,0.205h-32.153c-0.382,0-0.765-0.082-1.146-0.246
		c-0.382-0.164-0.724-0.368-1.023-0.613c-0.3-0.246-0.546-0.545-0.736-0.9c-0.191-0.354-0.286-0.696-0.286-1.023V303.158z
		 M469.089,306.921c-0.218,0-0.396,0.082-0.532,0.245c-0.137,0.164-0.205,0.327-0.205,0.491v6.791c0,0.218,0.068,0.396,0.205,0.532
		c0.136,0.137,0.313,0.205,0.532,0.205h16.854c0.164,0,0.327-0.068,0.491-0.205c0.164-0.136,0.246-0.313,0.246-0.532v-6.791
		c0-0.164-0.082-0.328-0.246-0.491s-0.327-0.245-0.491-0.245H469.089z"/>
	<path fill="#EC6109" d="M505.905,288.513h4.091c0.491,0,0.9,0.164,1.228,0.491c0.327,0.327,0.491,0.709,0.491,1.146v10.472h8.917
		c0.218,0,0.436,0.069,0.655,0.205c0.217,0.137,0.409,0.3,0.573,0.491c0.164,0.192,0.299,0.396,0.409,0.614
		c0.108,0.218,0.164,0.437,0.164,0.654v8.59c0,0.164-0.041,0.341-0.123,0.532c-0.082,0.191-0.191,0.355-0.327,0.491
		c-0.137,0.137-0.286,0.259-0.45,0.368c-0.164,0.11-0.328,0.164-0.491,0.164h-9.327v20.863c0,0.11,0.027,0.245,0.082,0.409
		c0.054,0.164,0.15,0.314,0.287,0.45c0.135,0.137,0.272,0.246,0.409,0.327c0.135,0.082,0.286,0.123,0.45,0.123h4.418
		c0.164,0,0.327,0.041,0.491,0.123c0.164,0.082,0.313,0.192,0.45,0.327c0.136,0.137,0.246,0.3,0.327,0.491
		c0.082,0.191,0.123,0.368,0.123,0.532v3.19c0,0.491-0.137,0.9-0.409,1.228c-0.273,0.327-0.628,0.491-1.063,0.491h-11.373
		c-0.437,0-0.818-0.164-1.145-0.491c-0.328-0.328-0.491-0.708-0.491-1.146V307.33h-3.354c-0.164,0-0.314-0.027-0.45-0.082
		c-0.137-0.054-0.273-0.15-0.409-0.287c-0.137-0.135-0.246-0.272-0.327-0.409c-0.082-0.136-0.123-0.287-0.123-0.45v-4.336
		c0-0.108,0.027-0.231,0.082-0.368c0.054-0.135,0.123-0.258,0.205-0.368c0.082-0.108,0.19-0.204,0.327-0.286
		c0.136-0.082,0.258-0.123,0.368-0.123h3.682v-10.472c0-0.436,0.164-0.818,0.491-1.146
		C505.087,288.677,505.468,288.513,505.905,288.513z"/>
	<path fill="#EC6109" d="M529.141,303.73c0-0.381,0.095-0.749,0.287-1.104c0.19-0.354,0.45-0.682,0.777-0.982
		c0.327-0.299,0.681-0.544,1.063-0.736c0.381-0.19,0.763-0.286,1.146-0.286h24.462c0.327,0,0.654,0.082,0.982,0.245
		c0.327,0.164,0.64,0.368,0.941,0.614c0.299,0.246,0.532,0.532,0.695,0.859c0.164,0.328,0.245,0.655,0.245,0.982v7.772
		c0,0.219-0.028,0.437-0.082,0.654c-0.055,0.219-0.137,0.423-0.246,0.614c-0.11,0.192-0.245,0.341-0.409,0.45
		c-0.164,0.11-0.355,0.164-0.572,0.164h-4.827c-0.164,0-0.341-0.041-0.532-0.123c-0.192-0.082-0.368-0.176-0.532-0.286
		c-0.164-0.109-0.286-0.246-0.368-0.409c-0.082-0.164-0.123-0.327-0.123-0.491v-3.845c0-0.217-0.123-0.422-0.368-0.614
		c-0.246-0.19-0.505-0.286-0.777-0.286h-13.254c-0.164,0-0.3,0.041-0.409,0.123c-0.11,0.082-0.205,0.178-0.287,0.286
		c-0.082,0.11-0.151,0.246-0.205,0.409c-0.055,0.164-0.082,0.3-0.082,0.409v5.645c0,0.491,0.054,0.969,0.164,1.432
		c0.108,0.464,0.272,0.928,0.491,1.391c0.217,0.464,0.463,0.928,0.736,1.391c0.272,0.464,0.544,0.928,0.818,1.391
		c0.272,0.464,0.544,0.914,0.818,1.35c0.272,0.438,0.504,0.887,0.695,1.35c0.191,0.464,0.354,0.941,0.491,1.432
		c0.135,0.491,0.205,0.982,0.205,1.473v14.236c0,0.219-0.069,0.45-0.205,0.695c-0.137,0.246-0.3,0.464-0.491,0.655
		c-0.191,0.191-0.409,0.355-0.654,0.491c-0.246,0.137-0.505,0.205-0.777,0.205h-7.772c-0.273,0-0.532-0.082-0.777-0.246
		c-0.246-0.164-0.464-0.354-0.655-0.573c-0.192-0.217-0.341-0.462-0.45-0.736c-0.11-0.272-0.164-0.544-0.164-0.818V303.73z"/>
	<path fill="#EC6109" d="M568.657,282.131h41.889c0.599,0,1.158,0.11,1.677,0.327c0.518,0.219,0.968,0.519,1.35,0.9
		c0.381,0.382,0.682,0.833,0.9,1.35c0.217,0.519,0.328,1.078,0.328,1.677v50.643c0,0.601-0.11,1.16-0.328,1.677
		c-0.218,0.519-0.519,0.969-0.9,1.35c-0.382,0.382-0.832,0.683-1.35,0.9c-0.519,0.218-1.078,0.327-1.677,0.327h-41.889
		c-0.601,0-1.16-0.109-1.677-0.327c-0.519-0.217-0.969-0.518-1.35-0.9c-0.382-0.381-0.683-0.831-0.9-1.35
		c-0.218-0.518-0.327-1.076-0.327-1.677v-50.643c0-0.6,0.109-1.158,0.327-1.677c0.217-0.518,0.518-0.968,0.9-1.35
		c0.381-0.381,0.831-0.681,1.35-0.9C567.498,282.241,568.056,282.131,568.657,282.131z M574.957,288.268
		c-0.655,0-1.174,0.055-1.555,0.164c-0.382,0.11-0.683,0.286-0.9,0.532c-0.219,0.246-0.355,0.587-0.409,1.022
		c-0.055,0.438-0.082,0.982-0.082,1.637v39.435c0,0.818,0.041,1.446,0.123,1.881c0.082,0.438,0.246,0.765,0.491,0.982
		c0.246,0.219,0.545,0.355,0.9,0.409c0.354,0.055,0.831,0.082,1.432,0.082h26.017c0.436,0,0.777-0.027,1.022-0.082
		c0.246-0.054,0.422-0.164,0.532-0.327c0.109-0.164,0.19-0.381,0.246-0.655c0.054-0.272,0.082-0.626,0.082-1.063v-15.545
		c0-0.436,0.054-0.913,0.164-1.432c0.109-0.518,0.272-1.022,0.491-1.514c0.217-0.491,0.45-0.995,0.695-1.514
		c0.246-0.518,0.491-1.022,0.736-1.513c0.246-0.491,0.504-0.954,0.777-1.391c0.272-0.436,0.503-0.818,0.695-1.146
		c0.19-0.327,0.34-0.626,0.45-0.9c0.108-0.272,0.164-0.462,0.164-0.573v-15.135c0-0.708-0.014-1.281-0.041-1.718
		c-0.028-0.436-0.123-0.777-0.287-1.023c-0.164-0.245-0.45-0.409-0.859-0.491c-0.409-0.082-0.996-0.123-1.759-0.123H574.957z"/>
	<path fill="#EC6109" d="M622.818,303.73c0-0.381,0.095-0.749,0.287-1.104c0.19-0.354,0.45-0.682,0.777-0.982
		c0.327-0.299,0.681-0.544,1.063-0.736c0.381-0.19,0.763-0.286,1.146-0.286h24.462c0.327,0,0.654,0.082,0.982,0.245
		c0.327,0.164,0.64,0.368,0.941,0.614c0.299,0.246,0.532,0.532,0.695,0.859c0.164,0.328,0.245,0.655,0.245,0.982v7.772
		c0,0.219-0.028,0.437-0.082,0.654c-0.055,0.219-0.137,0.423-0.246,0.614c-0.11,0.192-0.245,0.341-0.409,0.45
		c-0.164,0.11-0.355,0.164-0.572,0.164h-4.827c-0.164,0-0.341-0.041-0.532-0.123c-0.192-0.082-0.368-0.176-0.532-0.286
		c-0.164-0.109-0.286-0.246-0.368-0.409c-0.082-0.164-0.123-0.327-0.123-0.491v-3.845c0-0.217-0.123-0.422-0.368-0.614
		c-0.246-0.19-0.505-0.286-0.777-0.286h-13.254c-0.164,0-0.3,0.041-0.409,0.123c-0.11,0.082-0.205,0.178-0.287,0.286
		c-0.082,0.11-0.151,0.246-0.205,0.409c-0.055,0.164-0.082,0.3-0.082,0.409v5.645c0,0.491,0.054,0.969,0.164,1.432
		c0.108,0.464,0.272,0.928,0.491,1.391c0.217,0.464,0.463,0.928,0.736,1.391c0.272,0.464,0.544,0.928,0.818,1.391
		c0.272,0.464,0.544,0.914,0.818,1.35c0.272,0.438,0.504,0.887,0.695,1.35c0.191,0.464,0.354,0.941,0.491,1.432
		c0.135,0.491,0.205,0.982,0.205,1.473v14.236c0,0.219-0.069,0.45-0.205,0.695c-0.137,0.246-0.3,0.464-0.491,0.655
		c-0.191,0.191-0.409,0.355-0.654,0.491c-0.246,0.137-0.505,0.205-0.777,0.205h-7.772c-0.273,0-0.532-0.082-0.777-0.246
		c-0.246-0.164-0.464-0.354-0.655-0.573c-0.192-0.217-0.341-0.462-0.45-0.736c-0.11-0.272-0.164-0.544-0.164-0.818V303.73z"/>
	<path fill="#EC6109" d="M657.508,316.902c0-0.436,0.109-0.845,0.327-1.227c0.217-0.381,0.504-0.722,0.859-1.022
		c0.354-0.299,0.736-0.532,1.145-0.696c0.409-0.164,0.804-0.245,1.187-0.245h24.708c0.217,0,0.409-0.082,0.573-0.246
		s0.246-0.354,0.246-0.573v-4.827c0-0.217-0.137-0.422-0.409-0.613c-0.274-0.19-0.519-0.287-0.736-0.287h-26.263
		c-0.164,0-0.341-0.027-0.532-0.082c-0.192-0.054-0.368-0.15-0.532-0.287c-0.164-0.135-0.3-0.272-0.409-0.409
		c-0.11-0.135-0.164-0.286-0.164-0.45v-3.845c0-0.164,0.054-0.34,0.164-0.532c0.109-0.19,0.246-0.354,0.409-0.491
		c0.164-0.135,0.354-0.258,0.573-0.368c0.217-0.108,0.409-0.164,0.573-0.164h31.089c0.327,0,0.667,0.096,1.023,0.287
		c0.354,0.191,0.681,0.437,0.981,0.736c0.299,0.3,0.532,0.627,0.695,0.981c0.164,0.355,0.246,0.695,0.246,1.023v29.126
		c0,0.218,0.041,0.423,0.123,0.613c0.082,0.192,0.177,0.368,0.287,0.532c0.108,0.164,0.231,0.287,0.368,0.368
		c0.135,0.082,0.313,0.123,0.532,0.123h2.045c0.164,0,0.34,0.041,0.532,0.123c0.19,0.082,0.368,0.192,0.532,0.327
		c0.164,0.137,0.299,0.287,0.409,0.45c0.108,0.164,0.164,0.327,0.164,0.491v3.927c0,0.219-0.069,0.423-0.205,0.614
		c-0.137,0.191-0.314,0.368-0.532,0.532c-0.219,0.164-0.45,0.286-0.695,0.368c-0.246,0.082-0.478,0.123-0.695,0.123h-35.017
		c-0.382,0-0.792-0.095-1.228-0.286c-0.437-0.191-0.832-0.436-1.186-0.736c-0.355-0.299-0.642-0.655-0.859-1.064
		c-0.218-0.409-0.327-0.804-0.327-1.186V316.902z M670.68,320.42c-0.328,0-0.614,0.123-0.859,0.368
		c-0.245,0.246-0.368,0.532-0.368,0.859v11.208c0,0.327,0.123,0.613,0.368,0.859c0.246,0.246,0.532,0.368,0.859,0.368h14.563
		c0.327,0,0.613-0.123,0.859-0.368s0.368-0.532,0.368-0.859v-11.208c0-0.328-0.123-0.614-0.368-0.859
		c-0.246-0.245-0.532-0.368-0.859-0.368H670.68z"/>
	<path fill="#EC6109" d="M701.196,303.158c0-0.927,0.205-1.595,0.614-2.004s1.187-0.614,2.332-0.614h30.926
		c0.599,0,1.117,0.041,1.554,0.123c0.436,0.082,0.804,0.219,1.104,0.409c0.299,0.192,0.518,0.464,0.655,0.818
		c0.135,0.355,0.231,0.777,0.286,1.268l0.082,36.735c0,0.327-0.041,0.586-0.123,0.777c-0.082,0.192-0.151,0.328-0.205,0.409
		c-0.055,0.082-0.123,0.137-0.205,0.164c-0.082,0.028-0.15,0.041-0.204,0.041h-5.236c-0.11,0-0.246-0.027-0.409-0.082
		c-0.164-0.054-0.314-0.149-0.45-0.286c-0.137-0.136-0.246-0.272-0.328-0.409c-0.082-0.135-0.123-0.286-0.123-0.45v-31.581
		c0-0.327-0.014-0.585-0.041-0.777c-0.028-0.19-0.082-0.327-0.164-0.409c-0.082-0.082-0.192-0.136-0.327-0.164
		c-0.137-0.027-0.314-0.041-0.532-0.041h-20.454c-0.327,0-0.56,0.014-0.695,0.041c-0.137,0.028-0.246,0.082-0.328,0.164
		c-0.082,0.082-0.123,0.204-0.123,0.368c0,0.164,0,0.355,0,0.572v9.082c0,0.327,0.054,0.668,0.164,1.023
		c0.109,0.355,0.272,0.695,0.491,1.022c0.217,0.327,0.45,0.642,0.695,0.941c0.245,0.3,0.503,0.601,0.777,0.9
		c0.272,0.3,0.532,0.601,0.777,0.9c0.246,0.3,0.463,0.614,0.655,0.941c0.19,0.327,0.354,0.654,0.491,0.982
		c0.136,0.327,0.205,0.683,0.205,1.063v14.972c0,0.164-0.041,0.314-0.123,0.45c-0.082,0.137-0.192,0.273-0.328,0.409
		c-0.137,0.137-0.273,0.232-0.409,0.286c-0.137,0.055-0.287,0.082-0.45,0.082h-9.49c-0.11,0-0.233-0.027-0.368-0.082
		c-0.137-0.054-0.26-0.135-0.368-0.245c-0.11-0.109-0.192-0.231-0.246-0.368c-0.055-0.136-0.082-0.287-0.082-0.45V303.158z"/>
	<path fill="#EC6109" d="M746.031,303.239c0-0.327,0.095-0.654,0.287-0.981c0.19-0.327,0.436-0.614,0.736-0.859
		c0.299-0.245,0.64-0.436,1.022-0.572c0.381-0.136,0.736-0.205,1.063-0.205h34.853c0.164,0,0.328,0.041,0.491,0.123
		s0.299,0.205,0.409,0.368c0.109,0.164,0.191,0.327,0.246,0.491c0.054,0.164,0.082,0.328,0.082,0.491v3.6
		c0,0.164-0.028,0.327-0.082,0.491c-0.055,0.164-0.123,0.314-0.205,0.45c-0.082,0.137-0.191,0.246-0.327,0.327
		c-0.137,0.082-0.259,0.123-0.368,0.123h-4.909v20.699c0,0.219-0.041,0.438-0.123,0.655c-0.082,0.218-0.218,0.423-0.409,0.613
		c-0.192,0.192-0.382,0.341-0.573,0.45c-0.192,0.11-0.396,0.164-0.614,0.164h-18.327v6.463h19.472c0.272,0,0.559,0.069,0.859,0.205
		c0.299,0.137,0.559,0.327,0.777,0.573c0.217,0.245,0.395,0.519,0.532,0.818c0.135,0.301,0.205,0.587,0.205,0.859v18.326
		c0,0.272-0.055,0.573-0.164,0.9c-0.11,0.328-0.274,0.614-0.491,0.859c-0.218,0.245-0.478,0.45-0.777,0.613
		c-0.301,0.164-0.587,0.246-0.859,0.246h-30.107c-0.274,0-0.573-0.055-0.9-0.164c-0.328-0.11-0.628-0.273-0.9-0.491
		c-0.273-0.219-0.491-0.464-0.654-0.736c-0.164-0.274-0.246-0.546-0.246-0.818v-18.817c0-0.327,0.095-0.626,0.287-0.9
		c0.19-0.272,0.422-0.518,0.695-0.736c0.272-0.217,0.585-0.395,0.941-0.532c0.354-0.136,0.695-0.205,1.022-0.205h3.354v-6.463
		h-3.682c-0.273,0-0.56-0.041-0.859-0.123c-0.3-0.082-0.587-0.217-0.859-0.409c-0.273-0.19-0.491-0.395-0.654-0.614
		c-0.164-0.217-0.246-0.462-0.246-0.736V303.239z M754.785,307.167c-0.327,0-0.587,0.11-0.777,0.327
		c-0.192,0.219-0.286,0.464-0.286,0.736v13.745c0,0.273,0.094,0.519,0.286,0.736c0.19,0.218,0.45,0.327,0.777,0.327h16.199
		c0.272,0,0.503-0.109,0.695-0.327c0.19-0.217,0.287-0.463,0.287-0.736V308.23c0-0.272-0.096-0.518-0.287-0.736
		c-0.192-0.217-0.423-0.327-0.695-0.327H754.785z M758.876,342.02c-0.219,0-0.423,0.068-0.614,0.205
		c-0.192,0.135-0.286,0.313-0.286,0.532v9.899c0,0.217,0.094,0.395,0.286,0.532c0.19,0.136,0.395,0.205,0.614,0.205h14.072
		c0.272,0,0.504-0.069,0.695-0.205c0.191-0.137,0.287-0.314,0.287-0.532v-9.899c0-0.219-0.096-0.396-0.287-0.532
		c-0.191-0.137-0.423-0.205-0.695-0.205H758.876z"/>
	<path fill="#EC6109" d="M790.292,303.158c0-0.327,0.095-0.655,0.286-0.982c0.19-0.327,0.45-0.613,0.777-0.859
		s0.667-0.436,1.023-0.573c0.354-0.135,0.722-0.205,1.104-0.205h31.335c0.327,0,0.681,0.082,1.063,0.246
		c0.381,0.164,0.722,0.368,1.022,0.613c0.299,0.246,0.559,0.546,0.777,0.9c0.217,0.355,0.327,0.723,0.327,1.104v15.954
		c0,0.273-0.082,0.532-0.245,0.777c-0.164,0.245-0.368,0.478-0.614,0.695c-0.246,0.219-0.505,0.396-0.777,0.532
		c-0.273,0.137-0.546,0.205-0.818,0.205h-22.499c-0.274,0-0.519,0.11-0.736,0.327c-0.219,0.219-0.328,0.464-0.328,0.736v11.208
		c0,0.164,0.068,0.341,0.205,0.532c0.136,0.191,0.313,0.286,0.532,0.286h16.936c0.164,0,0.34-0.095,0.532-0.286
		c0.19-0.191,0.286-0.368,0.286-0.532v-4.09c0-0.217,0.109-0.436,0.327-0.655c0.217-0.217,0.436-0.327,0.655-0.327h5.318
		c0.164,0,0.313,0.028,0.45,0.082c0.136,0.055,0.258,0.137,0.368,0.245c0.109,0.11,0.205,0.233,0.287,0.368
		c0.082,0.137,0.123,0.287,0.123,0.45v9c0,0.273-0.082,0.546-0.245,0.818c-0.164,0.274-0.355,0.532-0.573,0.777
		c-0.219,0.246-0.464,0.438-0.736,0.573c-0.274,0.137-0.546,0.205-0.818,0.205h-32.153c-0.382,0-0.765-0.082-1.146-0.246
		c-0.382-0.164-0.724-0.368-1.023-0.613c-0.3-0.246-0.546-0.545-0.736-0.9c-0.191-0.354-0.286-0.696-0.286-1.023V303.158z
		 M802.728,306.921c-0.218,0-0.396,0.082-0.532,0.245c-0.137,0.164-0.205,0.327-0.205,0.491v6.791c0,0.218,0.068,0.396,0.205,0.532
		c0.136,0.137,0.313,0.205,0.532,0.205h16.854c0.164,0,0.327-0.068,0.491-0.205c0.164-0.136,0.246-0.313,0.246-0.532v-6.791
		c0-0.164-0.082-0.328-0.246-0.491s-0.327-0.245-0.491-0.245H802.728z"/>
	<path fill="#EC6109" d="M834.799,285.24c0-0.381,0.095-0.763,0.287-1.146c0.19-0.381,0.436-0.722,0.736-1.022
		c0.299-0.299,0.64-0.544,1.022-0.736c0.381-0.19,0.763-0.286,1.146-0.286h43.443c0.381,0,0.763,0.082,1.146,0.245
		c0.381,0.164,0.722,0.382,1.022,0.655c0.299,0.273,0.545,0.601,0.736,0.981c0.19,0.382,0.287,0.736,0.287,1.064v26.999
		c0,0.382-0.096,0.777-0.287,1.187c-0.191,0.409-0.437,0.764-0.736,1.063c-0.3,0.3-0.642,0.546-1.022,0.736
		c-0.382,0.191-0.765,0.286-1.146,0.286h-33.217c-0.164,0-0.341,0.041-0.532,0.123c-0.192,0.082-0.355,0.204-0.491,0.368
		c-0.137,0.164-0.246,0.327-0.327,0.491c-0.082,0.164-0.123,0.327-0.123,0.491v21.926c0,0.273-0.069,0.56-0.205,0.859
		c-0.137,0.3-0.3,0.586-0.491,0.859c-0.192,0.273-0.409,0.491-0.654,0.654c-0.246,0.164-0.505,0.246-0.777,0.246h-7.2
		c-0.327,0-0.655-0.095-0.982-0.286c-0.327-0.191-0.613-0.422-0.859-0.696c-0.246-0.272-0.437-0.573-0.573-0.9
		c-0.137-0.327-0.205-0.654-0.205-0.981V285.24z M843.717,288.758c-0.11,0-0.246,0.041-0.409,0.123
		c-0.164,0.082-0.3,0.164-0.409,0.246c-0.11,0.082-0.205,0.192-0.286,0.327c-0.082,0.137-0.123,0.287-0.123,0.45v18.081
		c0,0.273,0.123,0.491,0.368,0.654c0.246,0.164,0.504,0.246,0.777,0.246h32.808c0.217,0,0.436-0.109,0.655-0.327
		c0.217-0.217,0.327-0.436,0.327-0.655v-17.999c0-0.164-0.028-0.299-0.082-0.409c-0.055-0.108-0.137-0.217-0.245-0.327
		c-0.11-0.109-0.233-0.205-0.368-0.287c-0.137-0.082-0.287-0.123-0.45-0.123H843.717z"/>
	<path fill="#EC6109" d="M894.852,295.058c-0.601,0-1.174-0.123-1.718-0.368c-0.546-0.246-1.01-0.559-1.391-0.941
		c-0.382-0.381-0.696-0.845-0.941-1.391c-0.246-0.545-0.368-1.091-0.368-1.637c0-0.599,0.123-1.172,0.368-1.718
		c0.245-0.545,0.559-1.009,0.941-1.391c0.381-0.381,0.845-0.695,1.391-0.941c0.544-0.245,1.117-0.368,1.718-0.368
		c0.544,0,1.09,0.123,1.636,0.368c0.544,0.246,1.009,0.56,1.391,0.941c0.381,0.382,0.696,0.846,0.941,1.391
		c0.246,0.546,0.368,1.119,0.368,1.718c0,0.546-0.123,1.092-0.368,1.637c-0.245,0.545-0.56,1.01-0.941,1.391
		c-0.382,0.382-0.846,0.695-1.391,0.941C895.942,294.936,895.396,295.058,894.852,295.058z M892.479,300.622h4.827
		c0.164,0,0.328,0.041,0.491,0.123s0.299,0.192,0.409,0.327c0.108,0.137,0.204,0.287,0.286,0.45s0.123,0.327,0.123,0.491v11.536
		c0,0.273,0.068,0.613,0.205,1.022c0.136,0.409,0.313,0.846,0.532,1.309c0.217,0.464,0.463,0.955,0.736,1.473
		c0.272,0.519,0.559,1.022,0.859,1.514c0.299,0.491,0.6,0.981,0.9,1.473c0.299,0.491,0.559,0.955,0.777,1.391
		c0.217,0.438,0.395,0.832,0.532,1.187c0.135,0.355,0.205,0.642,0.205,0.859v15.626c0,0.219-0.055,0.438-0.164,0.655
		c-0.11,0.218-0.246,0.423-0.409,0.613c-0.164,0.192-0.341,0.341-0.532,0.45c-0.192,0.11-0.396,0.164-0.614,0.164h-8.018
		c-0.218,0-0.478-0.041-0.777-0.123c-0.301-0.082-0.56-0.217-0.777-0.409c-0.219-0.19-0.409-0.395-0.573-0.614
		c-0.164-0.217-0.246-0.463-0.246-0.736v-37.307c0-0.164,0.027-0.328,0.082-0.491c0.054-0.164,0.149-0.327,0.286-0.491
		c0.136-0.164,0.272-0.286,0.409-0.368C892.165,300.662,892.315,300.622,892.479,300.622z"/>
</g>
<path fill="#C90012" d="M588.007,464.085L588.007,464.085L588.007,464.085z"/>
<path fill="#C90012" d="M588.007,438.663L588.007,438.663L588.007,438.663z"/>
<path fill="#C90012" d="M588.007,413.231L588.007,413.231L588.007,413.231z"/>
<path fill="#C90012" d="M588.007,425.945L588.007,425.945L588.007,425.945z"/>
<path fill="#C90012" d="M588.007,476.798L588.007,476.798L588.007,476.798z"/>
<path fill="#C90012" d="M588.007,451.369L588.007,451.369L588.007,451.369z"/>
<path fill="#C90012" d="M588.007,400.514L588.007,400.514L588.007,400.514z"/>
<path fill="#004E73" d="M588.007,403.921c0-1.874-1.533-3.407-3.406-3.407h-107.62c-1.875,0-4.492,1.084-5.817,2.41l-7.897,7.896
	c-1.326,1.326-2.409,3.943-2.409,5.817v69.465c0,1.875,1.533,3.408,3.406,3.408h107.62c1.874,0,4.493-1.084,5.817-2.409l7.896-7.894
	c1.325-1.325,2.409-3.943,2.409-5.818L588.007,403.921z"/>
<path opacity="0.2" enable-background="new    " d="M572.882,448.961l-7.892-7.892c-1.325-1.325-3.942-2.41-5.816-2.409h-5.904
	c-1.875,0-3.408,0-3.408,0s1.083-1.084,2.41-2.41l20.611-20.61c1.326-1.325,0.876-2.41-0.997-2.41h-31.329
	c-1.874,0-4.491,1.084-5.816,2.41l-71.384,71.376c-0.56,0.559-1.079,1.078-1.494,1.492c0.617,0.617,1.468,1,2.403,1
	c0.002,0,0.004,0,0.005,0h30.659h51.528c1.874,0,3.411-0.004,3.415-0.007c0.004-0.005,1.092-1.092,2.417-2.417l20.595-20.591
	c1.326-1.324,2.409-3.942,2.409-5.816v-5.9C575.292,452.902,574.208,450.284,572.882,448.961z"/>
<path fill="#FFFFFF" d="M540.554,451.372c-1.874,0-4.492-1.085-5.816-2.41l-7.886-7.889c-1.326-1.325-2.41-3.943-2.413-5.817
	l-0.004-5.904c-0.002-1.874,1.082-4.491,2.407-5.816l7.896-7.895c1.326-1.325,3.942-2.41,5.816-2.41h31.33
	c1.874,0,2.323,1.084,0.998,2.41l-7.896,7.895c-1.325,1.325-3.941,2.409-5.817,2.409h-18.614c-1.875,0-3.408,1.533-3.408,3.407
	v5.903c0,1.874,1.533,3.407,3.407,3.407l18.619-0.002c1.874-0.001,4.492,1.083,5.817,2.409l7.892,7.892
	c1.325,1.323,2.409,3.941,2.409,5.817v5.899c0,1.874-1.083,4.493-2.409,5.817l-7.896,7.896c-1.325,1.324-3.942,2.409-5.817,2.409
	h-18.615c-1.874,0-4.491-1.085-5.816-2.409l-7.896-7.896c-1.325-1.324-0.876-2.409,0.998-2.409h31.329
	c1.875,0,3.408-1.534,3.408-3.408v-5.899c0-1.875,0-3.409,0.001-3.409s-1.532,0-3.406,0L540.554,451.372z"/>
<g opacity="0.2">
	<path d="M460.86,442.239c0-1.874,0-3.446,0-3.494s1.083-1.171,2.409-2.497l20.608-20.608c1.326-1.325,3.943-2.409,5.817-2.409
		h31.332c1.873,0,2.323,1.084,0.998,2.409l-20.612,20.607c-1.325,1.325-2.409,2.409-2.409,2.409s1.533,0,3.408,0.002l5.898,0.002
		c1.873,0.001,3.297,1.532,3.165,3.401l-0.342,4.783c-0.133,1.868-0.523,3.68-0.869,4.025c-0.345,0.345-1.71,1.712-3.036,3.036
		l-7.729,7.729c-1.325,1.323-2.419,2.418-2.429,2.428c-0.011,0.011,1.512,0.02,3.386,0.019h5.514
		c1.874-0.001,4.535,1.037,5.915,2.306l8.231,7.575c1.379,1.269,2.509,2.338,2.471,2.376c-0.038,0.039-1.155,1.155-2.481,2.479
		l-10.682,10.689l-45.154,0.001c-1.873,0-3.406-1.533-3.406-3.408L460.86,442.239z"/>
</g>
<path fill="#FFFFFF" d="M489.694,464.085c-1.874,0-3.407-1.534-3.407-3.408v-5.9c0-1.875,1.533-3.407,3.407-3.407h18.616
	c1.873,0,3.406-1.534,3.406-3.408v-5.891c0-1.874-1.533-3.407-3.406-3.407h-18.616c-1.874,0-3.407-1.533-3.407-3.408v-5.903
	c0-1.875,1.533-3.407,3.407-3.407h18.616c1.873,0,4.49-1.084,5.816-2.409l7.898-7.896c1.325-1.325,0.875-2.409-0.998-2.409h-31.332
	c-1.874,0-4.492,1.084-5.817,2.41l-7.894,7.894c-1.325,1.325-2.41,3.943-2.41,5.816v31.325c0,1.875,1.085,4.493,2.41,5.816
	l7.894,7.895c1.326,1.325,3.943,2.41,5.817,2.41h31.33c1.875,0,2.324-1.084,0.998-2.41l-7.896-7.896
	c-1.325-1.325-3.943-2.41-5.816-2.41L489.694,464.085z"/>
<g>
	<path fill="#2D2D2D" d="M626.985,428.646c-0.498,1.166-1.181,2.183-2.05,3.05c-0.869,0.869-1.885,1.552-3.051,2.049
		c-1.165,0.498-2.404,0.746-3.716,0.746h-2.606c-1.314,0-2.554-0.248-3.718-0.746c-1.166-0.498-2.183-1.18-3.05-2.049
		c-0.869-0.868-1.552-1.885-2.05-3.05c-0.499-1.165-0.747-2.404-0.747-3.717v-14.68c0-1.313,0.249-2.554,0.747-3.717
		c0.497-1.166,1.181-2.183,2.05-3.051c0.867-0.87,1.885-1.551,3.05-2.05c1.165-0.497,2.404-0.747,3.718-0.747h2.606
		c1.313,0,2.552,0.25,3.716,0.747c1.165,0.499,2.182,1.181,3.051,2.05c0.869,0.868,1.553,1.885,2.05,3.051
		c0.497,1.164,0.747,2.404,0.747,3.717v7.657h-17.826v7.244c0,0.785,0.148,1.521,0.445,2.21c0.295,0.688,0.698,1.286,1.207,1.794
		c0.51,0.508,1.107,0.911,1.796,1.208c0.688,0.296,1.424,0.444,2.208,0.444h2.606c0.784,0,1.519-0.148,2.208-0.444
		c0.688-0.296,1.287-0.699,1.796-1.208c0.508-0.508,0.911-1.107,1.208-1.794c0.296-0.689,0.445-1.425,0.445-2.21v-2.159l3.908,0.634
		v1.304C627.731,426.242,627.484,427.482,626.985,428.646z M623.824,410.026c0-0.784-0.149-1.52-0.445-2.209
		c-0.297-0.688-0.699-1.286-1.208-1.794s-1.107-0.912-1.795-1.208c-0.689-0.296-1.425-0.445-2.208-0.445h-2.606
		c-0.785,0-1.52,0.148-2.209,0.445c-0.688,0.297-1.286,0.7-1.795,1.208c-0.508,0.508-0.911,1.107-1.207,1.794
		c-0.297,0.689-0.445,1.425-0.445,2.209v4.829h13.918V410.026L623.824,410.026z"/>
	<path fill="#2D2D2D" d="M669.898,433.857v-23.831c0-0.784-0.148-1.52-0.446-2.209c-0.297-0.688-0.698-1.286-1.208-1.794
		c-0.507-0.508-1.107-0.912-1.795-1.208c-0.689-0.296-1.424-0.445-2.208-0.445h-1.938c-0.784,0-1.52,0.148-2.208,0.445
		c-0.688,0.297-1.292,0.7-1.811,1.208c-0.521,0.508-0.927,1.107-1.224,1.794c-0.296,0.689-0.443,1.425-0.443,2.209v23.831h-3.878
		v-23.831c0-0.784-0.148-1.52-0.444-2.209c-0.298-0.688-0.705-1.286-1.224-1.794s-1.122-0.912-1.811-1.208
		c-0.688-0.296-1.425-0.445-2.208-0.445h-1.938c-0.784,0-1.521,0.148-2.208,0.445c-0.689,0.297-1.287,0.7-1.795,1.208
		s-0.912,1.107-1.207,1.794c-0.297,0.689-0.446,1.425-0.446,2.209v23.831h-3.907V401.32h1.302l2.129,3.305
		c0.889-1.208,2.005-2.166,3.353-2.876c1.344-0.71,2.812-1.065,4.4-1.065h0.318c1.843,0,3.505,0.456,4.989,1.367
		c1.482,0.911,2.625,2.118,3.431,3.623c0.402-0.742,0.901-1.419,1.493-2.033c0.594-0.615,1.25-1.139,1.97-1.573
		c0.721-0.435,1.505-0.774,2.353-1.018c0.847-0.243,1.726-0.365,2.636-0.365h0.319c1.312,0,2.552,0.25,3.718,0.747
		c1.164,0.499,2.182,1.181,3.05,2.05s1.552,1.885,2.05,3.051c0.496,1.165,0.747,2.404,0.747,3.718v23.608h-3.91l0,0H669.898z"/>
	<path fill="#2D2D2D" d="M702.054,433.857l-2.161-3.305c-0.89,1.208-2.002,2.166-3.337,2.876c-1.333,0.709-2.795,1.063-4.384,1.063
		h-0.985c-1.315,0-2.553-0.249-3.718-0.747c-1.166-0.497-2.182-1.18-3.051-2.05c-0.869-0.867-1.552-1.884-2.05-3.049
		c-0.498-1.165-0.747-2.404-0.747-3.718V401.32h3.908v23.83c0,0.785,0.148,1.521,0.444,2.21c0.297,0.688,0.7,1.286,1.208,1.794
		c0.507,0.508,1.107,0.911,1.794,1.208c0.688,0.296,1.425,0.444,2.21,0.444h2.605c0.782,0,1.52-0.148,2.207-0.444
		c0.688-0.296,1.288-0.699,1.795-1.208c0.508-0.508,0.912-1.107,1.208-1.794c0.297-0.689,0.446-1.425,0.446-2.21v-23.83h3.907
		v32.537H702.054z"/>
	<path fill="#2D2D2D" d="M712.476,433.857v-45.565h3.908v45.565H712.476z"/>
	<path fill="#2D2D2D" d="M745.936,433.857l-2.162-3.241c-0.889,1.166-2,2.102-3.337,2.812c-1.333,0.709-2.796,1.063-4.382,1.063
		h-0.987c-1.313,0-2.552-0.249-3.717-0.747c-1.167-0.497-2.183-1.18-3.05-2.05c-0.87-0.867-1.553-1.884-2.05-3.049
		c-0.499-1.165-0.746-2.404-0.746-3.718v-0.318c0-1.313,0.247-2.552,0.746-3.718c0.497-1.165,1.18-2.181,2.05-3.05
		c0.867-0.868,1.884-1.552,3.05-2.049c1.165-0.498,2.403-0.746,3.717-0.746h8.262v-5.021c0-0.784-0.148-1.519-0.445-2.209
		c-0.297-0.688-0.698-1.286-1.208-1.794c-0.507-0.508-1.108-0.912-1.795-1.208c-0.689-0.296-1.426-0.445-2.208-0.445h-2.288
		c-0.784,0-1.521,0.148-2.208,0.445c-0.689,0.297-1.287,0.7-1.797,1.208c-0.506,0.508-0.911,1.107-1.207,1.794
		c-0.297,0.69-0.445,1.425-0.445,2.209v1.176l-3.908-0.636v-0.317c0-1.313,0.25-2.554,0.748-3.718
		c0.498-1.166,1.182-2.182,2.05-3.05c0.867-0.87,1.885-1.552,3.05-2.051c1.164-0.496,2.404-0.747,3.717-0.747h2.289
		c1.313,0,2.552,0.25,3.717,0.747c1.166,0.499,2.182,1.181,3.052,2.051c0.868,0.868,1.55,1.884,2.049,3.05
		c0.498,1.164,0.746,2.404,0.746,3.718v23.608H745.936L745.936,433.857z M743.33,418.097h-8.262c-0.785,0-1.521,0.149-2.209,0.445
		c-0.688,0.297-1.286,0.704-1.795,1.223c-0.509,0.521-0.911,1.124-1.208,1.812c-0.297,0.689-0.445,1.425-0.445,2.209v1.365
		c0,0.785,0.147,1.521,0.445,2.21c0.297,0.688,0.698,1.286,1.208,1.794c0.509,0.508,1.106,0.911,1.795,1.208
		c0.688,0.296,1.425,0.444,2.209,0.444h2.605c0.783,0,1.52-0.148,2.208-0.444c0.688-0.296,1.288-0.699,1.795-1.208
		c0.509-0.508,0.911-1.107,1.208-1.794c0.297-0.689,0.445-1.425,0.445-2.21L743.33,418.097L743.33,418.097z"/>
	<path fill="#2D2D2D" d="M766.906,433.857c-1.185,0-2.303-0.222-3.353-0.667c-1.048-0.445-1.96-1.061-2.733-1.843
		c-0.773-0.785-1.387-1.695-1.843-2.733s-0.683-2.149-0.683-3.336v-20.241h-5.848v-3.717h5.848v-7.817l3.907-0.634v8.451h8.263
		v3.717h-8.261v20.431c0,0.658,0.122,1.267,0.365,1.827c0.242,0.562,0.576,1.054,1,1.478c0.424,0.424,0.922,0.758,1.494,1.001
		c0.572,0.243,1.186,0.365,1.843,0.365h3.559v3.718L766.906,433.857L766.906,433.857z"/>
	<path fill="#2D2D2D" d="M778.631,393.503v-5.211h4.544v5.211H778.631z M778.948,433.857V401.32h3.908v32.537H778.948z"/>
	<path fill="#2D2D2D" d="M812.964,428.646c-0.498,1.166-1.182,2.183-2.049,3.05c-0.87,0.869-1.886,1.552-3.052,2.049
		c-1.165,0.498-2.404,0.746-3.717,0.746h-2.606c-1.313,0-2.551-0.248-3.716-0.746c-1.167-0.498-2.184-1.18-3.051-2.049
		c-0.87-0.868-1.552-1.885-2.049-3.05c-0.499-1.165-0.747-2.404-0.747-3.717v-14.68c0-1.313,0.248-2.554,0.747-3.717
		c0.497-1.166,1.179-2.183,2.049-3.051c0.867-0.87,1.885-1.551,3.051-2.05c1.165-0.497,2.403-0.747,3.716-0.747h2.606
		c1.313,0,2.552,0.25,3.717,0.747c1.166,0.499,2.182,1.181,3.052,2.05c0.867,0.868,1.551,1.885,2.049,3.051
		c0.498,1.164,0.747,2.404,0.747,3.717v14.68C813.71,426.242,813.462,427.482,812.964,428.646z M809.803,410.026
		c0-0.784-0.147-1.52-0.445-2.209c-0.297-0.688-0.698-1.286-1.208-1.794c-0.507-0.508-1.107-0.912-1.795-1.208
		c-0.689-0.296-1.425-0.445-2.209-0.445h-2.605c-0.785,0-1.52,0.148-2.208,0.445c-0.688,0.297-1.287,0.7-1.795,1.208
		c-0.509,0.508-0.911,1.107-1.207,1.794c-0.298,0.689-0.445,1.425-0.445,2.209v15.124c0,0.784,0.147,1.521,0.445,2.209
		c0.296,0.687,0.698,1.287,1.207,1.795c0.509,0.508,1.106,0.911,1.795,1.208c0.688,0.296,1.424,0.444,2.208,0.444h2.605
		c0.784,0,1.52-0.148,2.209-0.444c0.687-0.297,1.287-0.7,1.795-1.208c0.51-0.508,0.911-1.108,1.208-1.795
		c0.297-0.689,0.445-1.425,0.445-2.209V410.026z"/>
	<path fill="#2D2D2D" d="M839.354,433.857v-23.831c0-0.784-0.148-1.52-0.445-2.209c-0.296-0.688-0.699-1.286-1.207-1.794
		c-0.51-0.508-1.108-0.912-1.796-1.208c-0.688-0.296-1.424-0.445-2.207-0.445h-2.605c-0.785,0-1.522,0.148-2.209,0.445
		c-0.688,0.297-1.286,0.7-1.796,1.208c-0.507,0.508-0.91,1.107-1.207,1.794c-0.297,0.689-0.445,1.425-0.445,2.209v23.831h-3.908
		V401.32h1.303l2.128,3.305c0.89-1.208,2.007-2.166,3.353-2.876c1.345-0.71,2.813-1.065,4.401-1.065h0.985
		c1.313,0,2.552,0.25,3.718,0.747c1.165,0.499,2.181,1.181,3.049,2.05c0.869,0.868,1.553,1.885,2.05,3.051
		c0.498,1.164,0.747,2.404,0.747,3.717v23.608H839.354L839.354,433.857z"/>
	<path fill="#2D2D2D" d="M628.367,480.698c0,1.312-0.265,2.515-0.793,3.606c-0.53,1.092-1.25,2.029-2.162,2.813
		c-0.911,0.785-1.965,1.392-3.162,1.827c-1.197,0.434-2.452,0.65-3.765,0.65h-2.605c-1.314,0-2.569-0.25-3.766-0.746
		c-1.197-0.499-2.246-1.179-3.146-2.05c-0.901-0.866-1.62-1.884-2.16-3.05c-0.54-1.165-0.811-2.404-0.811-3.716v-1.303l3.909-0.637
		v2.16c0,0.784,0.163,1.521,0.492,2.209c0.328,0.688,0.768,1.286,1.319,1.795c0.551,0.507,1.186,0.911,1.907,1.207
		c0.72,0.296,1.473,0.443,2.256,0.443h2.604c0.784,0,1.536-0.115,2.256-0.347c0.72-0.235,1.361-0.568,1.923-1.003
		c0.561-0.434,1.006-0.958,1.335-1.573c0.327-0.613,0.491-1.312,0.491-2.097c0-1.164-0.253-2.117-0.762-2.859
		c-0.509-0.743-1.181-1.361-2.017-1.859c-0.836-0.498-1.79-0.909-2.859-1.237c-1.071-0.329-2.167-0.658-3.29-0.986
		c-1.124-0.329-2.219-0.704-3.29-1.126c-1.069-0.426-2.022-0.981-2.859-1.67c-0.837-0.688-1.508-1.552-2.017-2.589
		c-0.51-1.038-0.763-2.329-0.763-3.877c0-1.312,0.253-2.514,0.763-3.605c0.508-1.092,1.196-2.029,2.064-2.813
		c0.869-0.784,1.88-1.392,3.035-1.826c1.154-0.435,2.388-0.653,3.701-0.653h2.288c1.313,0,2.553,0.251,3.718,0.747
		c1.165,0.5,2.183,1.181,3.051,2.05c0.867,0.869,1.55,1.886,2.049,3.052c0.497,1.165,0.747,2.404,0.747,3.716v0.127l-3.909,0.636
		v-0.986c0-0.782-0.147-1.52-0.445-2.207c-0.297-0.687-0.698-1.286-1.207-1.795c-0.509-0.508-1.107-0.912-1.796-1.208
		c-0.688-0.295-1.425-0.445-2.208-0.445h-2.289c-0.783,0-1.52,0.117-2.208,0.349c-0.688,0.235-1.287,0.569-1.795,1
		c-0.508,0.437-0.911,0.96-1.208,1.573c-0.297,0.616-0.445,1.315-0.445,2.099c0,1.122,0.254,2.039,0.763,2.747
		c0.508,0.711,1.181,1.311,2.018,1.796c0.836,0.488,1.79,0.894,2.86,1.223c1.069,0.329,2.16,0.667,3.272,1.016
		c1.113,0.35,2.204,0.748,3.273,1.193c1.069,0.444,2.023,1.016,2.859,1.714c0.838,0.7,1.51,1.573,2.019,2.623
		C628.113,477.854,628.367,479.15,628.367,480.698z"/>
	<path fill="#2D2D2D" d="M647.718,488.96c-1.186,0-2.303-0.224-3.352-0.667c-1.05-0.447-1.961-1.062-2.733-1.843
		c-0.773-0.784-1.387-1.695-1.843-2.732c-0.455-1.039-0.684-2.151-0.684-3.337v-20.243h-5.846v-3.716h5.846v-7.815l3.908-0.636
		v8.452h8.262v3.716h-8.262v20.433c0,0.658,0.122,1.266,0.366,1.827c0.244,0.561,0.577,1.054,1,1.476
		c0.424,0.426,0.921,0.759,1.493,1.003c0.573,0.242,1.187,0.365,1.843,0.365h3.559v3.719H647.718L647.718,488.96z"/>
	<path fill="#2D2D2D" d="M678.89,488.96l-2.16-3.242c-0.89,1.167-2.003,2.103-3.337,2.812c-1.335,0.709-2.796,1.063-4.386,1.063
		h-0.983c-1.315,0-2.555-0.249-3.719-0.746c-1.166-0.498-2.182-1.179-3.05-2.05c-0.87-0.866-1.552-1.883-2.049-3.05
		c-0.499-1.164-0.747-2.404-0.747-3.716v-0.319c0-1.312,0.248-2.553,0.747-3.716c0.497-1.165,1.18-2.181,2.049-3.049
		c0.869-0.869,1.886-1.553,3.05-2.051c1.165-0.497,2.404-0.746,3.719-0.746h8.261v-5.022c0-0.782-0.149-1.519-0.445-2.207
		c-0.297-0.688-0.699-1.287-1.208-1.796c-0.509-0.507-1.107-0.911-1.795-1.208c-0.688-0.295-1.424-0.446-2.208-0.446h-2.288
		c-0.785,0-1.52,0.151-2.208,0.446c-0.688,0.296-1.287,0.7-1.795,1.208c-0.508,0.509-0.911,1.108-1.207,1.796
		c-0.298,0.688-0.445,1.425-0.445,2.207v1.176l-3.909-0.636v-0.317c0-1.313,0.249-2.552,0.747-3.716
		c0.498-1.167,1.181-2.183,2.049-3.052c0.869-0.869,1.886-1.55,3.051-2.05c1.165-0.495,2.405-0.746,3.718-0.746h2.288
		c1.313,0,2.552,0.251,3.718,0.746c1.164,0.5,2.181,1.182,3.049,2.05c0.868,0.869,1.552,1.885,2.05,3.052
		c0.498,1.164,0.747,2.404,0.747,3.716v23.61H678.89L678.89,488.96z M676.285,473.199h-8.261c-0.786,0-1.521,0.147-2.209,0.443
		c-0.689,0.299-1.287,0.704-1.796,1.223c-0.509,0.521-0.911,1.125-1.207,1.813c-0.298,0.688-0.445,1.425-0.445,2.209v1.364
		c0,0.784,0.147,1.521,0.445,2.208c0.296,0.688,0.698,1.287,1.207,1.796c0.509,0.506,1.106,0.911,1.796,1.207
		c0.688,0.296,1.424,0.444,2.209,0.444h2.604c0.783,0,1.52-0.148,2.208-0.444c0.688-0.295,1.286-0.699,1.795-1.207
		c0.507-0.509,0.91-1.108,1.207-1.796c0.296-0.688,0.445-1.425,0.445-2.208L676.285,473.199L676.285,473.199z"/>
	<path fill="#2D2D2D" d="M699.861,488.96c-1.186,0-2.304-0.224-3.352-0.667c-1.049-0.447-1.96-1.062-2.732-1.843
		c-0.775-0.784-1.388-1.695-1.844-2.732c-0.456-1.039-0.684-2.151-0.684-3.337v-20.243h-5.847v-3.716h5.847v-7.815l3.908-0.636
		v8.452h8.261v3.716h-8.261v20.433c0,0.658,0.122,1.266,0.365,1.827s0.577,1.054,1.001,1.476c0.424,0.426,0.922,0.759,1.493,1.003
		c0.572,0.242,1.187,0.365,1.843,0.365h3.558v3.719H699.861L699.861,488.96z"/>
	<path fill="#2D2D2D" d="M711.586,448.606v-5.21h4.544v5.21H711.586z M711.904,488.96v-32.539h3.907v32.539H711.904L711.904,488.96z
		"/>
	<path fill="#2D2D2D" d="M745.919,483.748c-0.498,1.167-1.181,2.184-2.049,3.05c-0.869,0.871-1.885,1.552-3.05,2.05
		c-1.166,0.498-2.403,0.746-3.717,0.746h-2.605c-1.315,0-2.554-0.249-3.719-0.746c-1.165-0.498-2.181-1.179-3.05-2.05
		c-0.868-0.866-1.552-1.883-2.049-3.05c-0.498-1.164-0.747-2.404-0.747-3.716v-14.681c0-1.313,0.249-2.552,0.747-3.716
		c0.498-1.167,1.181-2.183,2.049-3.052c0.869-0.869,1.886-1.55,3.05-2.05c1.165-0.495,2.404-0.746,3.719-0.746h2.605
		c1.313,0,2.551,0.251,3.717,0.746c1.165,0.5,2.182,1.182,3.05,2.05c0.869,0.869,1.552,1.885,2.049,3.052
		c0.499,1.164,0.747,2.404,0.747,3.716v14.681C746.666,481.343,746.417,482.583,745.919,483.748z M742.757,465.127
		c0-0.782-0.148-1.519-0.445-2.207c-0.297-0.688-0.699-1.287-1.207-1.796c-0.509-0.507-1.107-0.911-1.795-1.208
		c-0.688-0.295-1.425-0.446-2.208-0.446h-2.605c-0.785,0-1.522,0.151-2.209,0.446c-0.688,0.296-1.286,0.7-1.796,1.208
		c-0.507,0.509-0.911,1.108-1.207,1.796s-0.444,1.425-0.444,2.207v15.125c0,0.784,0.148,1.521,0.444,2.209s0.7,1.286,1.207,1.795
		c0.51,0.507,1.108,0.911,1.796,1.208c0.688,0.296,1.425,0.444,2.209,0.444h2.605c0.783,0,1.52-0.148,2.208-0.444
		c0.688-0.296,1.287-0.7,1.795-1.208c0.508-0.509,0.91-1.107,1.207-1.795c0.296-0.688,0.445-1.426,0.445-2.209V465.127z"/>
	<path fill="#2D2D2D" d="M772.309,488.96v-23.833c0-0.782-0.147-1.519-0.444-2.207c-0.298-0.688-0.698-1.287-1.208-1.796
		c-0.507-0.507-1.107-0.911-1.795-1.208c-0.688-0.295-1.425-0.446-2.208-0.446h-2.606c-0.784,0-1.52,0.151-2.208,0.446
		c-0.688,0.296-1.286,0.7-1.795,1.208c-0.509,0.509-0.912,1.108-1.208,1.796c-0.297,0.688-0.445,1.425-0.445,2.207v23.833h-3.907
		v-32.539h1.301l2.129,3.306c0.89-1.208,2.007-2.167,3.353-2.876c1.345-0.709,2.813-1.066,4.4-1.066h0.986
		c1.312,0,2.552,0.251,3.717,0.747c1.165,0.5,2.182,1.181,3.052,2.05c0.867,0.869,1.55,1.885,2.048,3.053
		c0.498,1.164,0.747,2.404,0.747,3.715v23.611H772.309L772.309,488.96z"/>
</g>
<g>
	<path fill="#2D2D2D" d="M352.651,130.949H223.126c-3.251,0-5.887,2.636-5.887,5.887v52.987c0,3.252,2.636,5.888,5.887,5.888
		h129.525c3.251,0,5.888-2.635,5.888-5.888v-52.987C358.539,133.585,355.902,130.949,352.651,130.949z M353.305,185.906
		c0,2.615-2.435,4.735-5.439,4.735h-43.953c0.483,0,0.874-0.148,0.874-0.328v-6.104c0-0.182-0.391-0.329-0.874-0.329h-39.9
		c-0.482,0-0.874,0.146-0.874,0.329v6.104c0,0.18,0.392,0.328,0.874,0.328h-35.776c-3.003,0-5.438-2.12-5.438-4.735V143.29
		c0-2.614,2.435-4.734,5.438-4.734h35.776c-0.482,0-0.874,0.168-0.874,0.375v7c0,0.207,0.392,0.376,0.874,0.376h39.9
		c0.483,0,0.874-0.169,0.874-0.376v-7c0-0.207-0.391-0.375-0.874-0.375h43.953c3.003,0,5.439,2.12,5.439,4.734V185.906z"/>
	<path fill="#2D2D2D" d="M303.914,149.647h-39.9c-0.482,0-0.874,0.091-0.874,0.205v3.809c0,0.111,0.392,0.204,0.874,0.204h39.9
		c0.483,0,0.874-0.092,0.874-0.204v-3.809C304.788,149.738,304.397,149.647,303.914,149.647z"/>
	<path fill="#2D2D2D" d="M303.914,158.082h-39.9c-0.482,0-0.874,0.091-0.874,0.204v3.809c0,0.112,0.392,0.204,0.874,0.204h39.9
		c0.483,0,0.874-0.092,0.874-0.204v-3.809C304.788,158.172,304.397,158.082,303.914,158.082z"/>
	<path fill="#2D2D2D" d="M303.914,166.803h-39.9c-0.482,0-0.874,0.293-0.874,0.656v12.209c0,0.36,0.392,0.655,0.874,0.655h39.9
		c0.483,0,0.874-0.295,0.874-0.655v-12.209C304.788,167.096,304.397,166.803,303.914,166.803z M282.764,175.132
		c0,0.092-0.139,0.168-0.311,0.168h-14.205c-0.172,0-0.311-0.076-0.311-0.168v-3.136c0-0.094,0.138-0.169,0.311-0.169h14.205
		c0.172,0,0.311,0.076,0.311,0.169V175.132z M300.863,175.132c0,0.092-0.139,0.168-0.311,0.168h-14.205
		c-0.172,0-0.312-0.076-0.312-0.168v-3.136c0-0.094,0.139-0.169,0.312-0.169h14.205c0.172,0,0.311,0.076,0.311,0.169V175.132z"/>
	<path fill="#2D2D2D" d="M344.256,166.803h-29.873c-0.361,0-0.655,0.293-0.655,0.654v12.211c0,0.361,0.294,0.654,0.655,0.654h29.873
		c0.362,0,0.654-0.293,0.654-0.654v-12.211C344.91,167.096,344.617,166.803,344.256,166.803z M322.014,178.796
		c-2.89,0-5.233-2.343-5.233-5.233c0-2.89,2.344-5.233,5.233-5.233c2.889,0,5.233,2.343,5.233,5.233
		C327.247,176.454,324.904,178.796,322.014,178.796z M336.188,178.796c-2.89,0-5.234-2.343-5.234-5.233
		c0-2.89,2.344-5.233,5.234-5.233c2.89,0,5.234,2.343,5.234,5.233C341.422,176.454,339.078,178.796,336.188,178.796z"/>
	<path fill="#2D2D2D" d="M255.671,159.295h-6.16v-6.159c0-0.722-0.61-1.308-1.36-1.308h-8.945c-0.75,0-1.361,0.586-1.361,1.308
		v6.159h-6.159c-0.721,0-1.308,0.611-1.308,1.36v8.945c0,0.75,0.587,1.361,1.308,1.361h6.159v6.16c0,0.722,0.611,1.308,1.361,1.308
		h8.945c0.75,0,1.36-0.586,1.36-1.308v-6.16h6.16c0.722,0,1.308-0.611,1.308-1.361v-8.945
		C256.979,159.907,256.392,159.295,255.671,159.295z M255.671,169.654h-7.468l0.005,7.448c0,0-0.016,0.02-0.057,0.02h-8.997v-7.468
		l-7.468-0.053v-8.998h7.468l0.052-7.467h8.997v7.467l7.468,0.052V169.654z"/>
	<polygon fill="#2D2D2D" points="241.057,159.572 246.188,159.572 243.622,155.22 	"/>
	<polygon fill="#2D2D2D" points="243.622,175.371 246.188,171.02 241.057,171.02 	"/>
	<polygon fill="#2D2D2D" points="249.346,162.731 249.346,167.862 253.698,165.295 	"/>
	<polygon fill="#2D2D2D" points="237.899,167.862 237.899,162.731 233.547,165.295 	"/>
</g>
<g>
	<path fill-rule="evenodd" clip-rule="evenodd" fill="#2D2D2D" d="M429.183,140.028h-11.722v11.756h-11.754v12.075h11.754v11.402
		h11.722v-11.402h11.755v-12.075h-11.755V140.028z M422.295,142.824l1.027-1.185l1.026,1.185l1.026,1.186h-2.053h-2.054
		L422.295,142.824z M419.983,151.251v-5.267h6.629v5.267h0.083l-0.083,0.098v0.137h-0.114l-1.49,1.764l-1.686,1.999l-1.688-1.999
		l-1.488-1.764h-0.162v-0.192l-0.036-0.042H419.983z M409.308,158.024v2.053l-1.185-1.028l-1.187-1.025l1.187-1.028l1.185-1.025
		V158.024z M416.644,161.339v0.116h-0.137l-0.098,0.083v-0.083h-5.267v-6.63h5.267v-0.037l0.042,0.037h0.192v0.162l1.764,1.488
		l2,1.688l-2,1.688L416.644,161.339z M424.349,173.223l-1.026,1.185l-1.027-1.185l-1.026-1.187h2.054h2.053L424.349,173.223z
		 M426.613,165.077v5.266h-6.629v-5.266h-0.036l0.036-0.044v-0.19h0.162l1.488-1.765l1.688-2l1.686,2l1.49,1.765h0.114v0.135
		l0.083,0.1H426.613z M437.336,158.024v-2.053l1.185,1.025l1.186,1.028l-1.186,1.025l-1.185,1.028V158.024z M430,154.987v-0.162
		h0.192l0.043-0.037v0.037h5.266v6.63h-5.266v0.083l-0.099-0.083H430v-0.116l-1.764-1.488l-2-1.688l2-1.688L430,154.987z"/>
	<path fill="#2D2D2D" d="M415.233,126.519c0,0,0.112-0.249,0.407-0.637c0.294-0.39,0.767-0.925,1.478-1.473
		c0.703-0.55,1.649-1.111,2.81-1.545c0.583-0.209,1.209-0.402,1.88-0.516c0.666-0.133,1.368-0.191,2.072-0.201
		c0.703,0.001,1.411,0.053,2.081,0.181c0.675,0.113,1.31,0.303,1.897,0.513c0.581,0.221,1.111,0.473,1.577,0.742
		c0.466,0.27,0.876,0.552,1.222,0.832c0.346,0.283,0.647,0.546,0.879,0.804c0.241,0.25,0.435,0.476,0.575,0.675
		c0.29,0.39,0.424,0.625,0.424,0.625s-0.313-0.099-0.804-0.297c-0.24-0.104-0.553-0.206-0.889-0.334
		c-0.331-0.134-0.715-0.263-1.12-0.407c-0.199-0.077-0.413-0.142-0.633-0.209c-0.22-0.066-0.434-0.152-0.671-0.206
		c-0.458-0.137-0.942-0.252-1.435-0.361c-0.252-0.038-0.497-0.103-0.753-0.137c-0.258-0.026-0.508-0.084-0.768-0.1
		c-0.518-0.054-1.041-0.086-1.564-0.079c-0.525-0.002-1.051,0.033-1.57,0.092c-0.521,0.052-1.033,0.148-1.535,0.243
		c-1,0.209-1.946,0.484-2.764,0.758c-0.82,0.272-1.513,0.537-2.009,0.725C415.521,126.405,415.233,126.519,415.233,126.519z"/>
	<path fill="#2D2D2D" d="M498.999,126.519c0,0,0.111-0.249,0.407-0.637c0.292-0.39,0.766-0.925,1.477-1.473
		c0.703-0.55,1.651-1.111,2.811-1.545c0.582-0.209,1.208-0.402,1.879-0.516c0.666-0.133,1.369-0.191,2.072-0.201
		c0.704,0.001,1.411,0.053,2.083,0.181c0.675,0.113,1.31,0.303,1.896,0.513c0.582,0.221,1.113,0.473,1.579,0.742
		c0.465,0.27,0.876,0.552,1.223,0.832c0.343,0.283,0.646,0.546,0.877,0.804c0.241,0.25,0.435,0.476,0.575,0.675
		c0.29,0.39,0.426,0.625,0.426,0.625s-0.313-0.099-0.804-0.297c-0.239-0.104-0.553-0.206-0.889-0.334
		c-0.331-0.134-0.714-0.263-1.121-0.407c-0.199-0.077-0.413-0.142-0.633-0.209c-0.22-0.066-0.433-0.152-0.669-0.206
		c-0.458-0.137-0.943-0.252-1.436-0.361c-0.253-0.038-0.497-0.103-0.754-0.137c-0.256-0.026-0.509-0.084-0.768-0.1
		c-0.516-0.054-1.04-0.086-1.564-0.079c-0.523-0.002-1.05,0.033-1.57,0.092c-0.521,0.052-1.032,0.148-1.535,0.243
		c-1,0.209-1.946,0.484-2.763,0.758c-0.82,0.272-1.512,0.537-2.01,0.725C499.285,126.405,498.999,126.519,498.999,126.519z"/>
	<path fill-rule="evenodd" clip-rule="evenodd" fill="#2D2D2D" d="M537.484,191.124c0,0-3.245-20.031-5.36-34.559
		c-2.117-14.53-12.555-20.173-12.555-20.173c-0.021-2.273-1.27-9.873-10.861-9.873c-14.67,0-12.978,9.027-12.978,9.027h-17.208
		H453.13h-17.207c0,0,1.693-9.027-12.978-9.027c-9.591,0-10.838,7.6-10.86,9.873c0,0-10.439,5.643-12.555,20.173
		c-2.116,14.528-5.36,34.559-5.36,34.559s-0.705,23.698,22.288,15.659c6.488-3.669,15.658-20.031,15.658-20.031
		s0.409,0.326,1.137,0.805c2.606,3.37,6.685,5.542,11.275,5.542c6.268,0,11.586-4.049,13.493-9.673
		c0.206-0.293,0.41-0.594,0.614-0.908c2.948,0,5.31-0.01,7.192-0.024c1.883,0.014,4.245,0.024,7.193,0.024
		c0.203,0.313,0.408,0.614,0.614,0.908c1.906,5.624,7.224,9.673,13.493,9.673c4.59,0,8.67-2.172,11.276-5.542
		c0.728-0.479,1.137-0.805,1.137-0.805s9.169,16.362,15.658,20.031C538.189,214.822,537.484,191.124,537.484,191.124z
		 M430.25,164.925v11.403h-13.855v-11.403H404.64v-14.208h11.755v-11.756h13.855v11.756h11.756v14.208H430.25z M444.281,187.725
		c-5.317,0-9.627-4.311-9.627-9.628c0-5.317,4.31-9.626,9.627-9.626c5.317,0,9.627,4.309,9.627,9.626
		C453.908,183.415,449.598,187.725,444.281,187.725z M456.941,159.949h-7.476v-3.667h7.476V159.949z M465.826,171.222
		c-2.821,0-5.116-2.294-5.116-5.115c0-2.821,2.295-5.117,5.116-5.117c2.82,0,5.117,2.296,5.117,5.117
		C470.943,168.928,468.646,171.222,465.826,171.222z M475.285,160.266v-2.621v-2.622l4.017,1.311l4.017,1.311l-4.017,1.312
		L475.285,160.266z M486.881,187.725c-5.317,0-9.627-4.311-9.627-9.628c0-5.317,4.31-9.626,9.627-9.626
		c5.317,0,9.627,4.309,9.627,9.626C496.508,183.415,492.198,187.725,486.881,187.725z M497.142,162.407
		c-2.629,0-4.762-2.133-4.762-4.761c0-2.629,2.132-4.761,4.762-4.761s4.761,2.132,4.761,4.761
		C501.903,160.274,499.771,162.407,497.142,162.407z M508.214,173.48c-2.628,0-4.76-2.131-4.76-4.761
		c0-2.628,2.131-4.761,4.76-4.761c2.63,0,4.762,2.132,4.762,4.761C512.976,171.349,510.844,173.48,508.214,173.48z M508.214,151.334
		c-2.628,0-4.76-2.132-4.76-4.761c0-2.629,2.131-4.761,4.76-4.761c2.63,0,4.762,2.131,4.762,4.761
		C512.976,149.202,510.844,151.334,508.214,151.334z M519.288,162.407c-2.629,0-4.761-2.133-4.761-4.761
		c0-2.629,2.132-4.761,4.761-4.761s4.761,2.132,4.761,4.761C524.049,160.274,521.917,162.407,519.288,162.407z"/>
</g>
<g>
	<g>
		<path fill="#2D2D2D" d="M801.504,161.794c-8.512,0-15.436,6.925-15.436,15.435c0,8.511,6.924,15.434,15.436,15.434
			c8.511,0,15.435-6.923,15.435-15.434C816.939,168.719,810.015,161.794,801.504,161.794z M812.486,183.091h-5.641v5.641
			c0,0.662-0.56,1.197-1.246,1.197h-8.191c-0.687,0-1.247-0.535-1.247-1.197v-5.641h-5.64c-0.661,0-1.199-0.559-1.199-1.246v-8.193
			c0-0.686,0.538-1.245,1.199-1.245h5.64v-5.64c0-0.661,0.561-1.198,1.247-1.198h8.191c0.687,0,1.246,0.537,1.246,1.198v5.64h5.641
			c0.662,0,1.198,0.559,1.198,1.245v8.193C813.684,182.532,813.147,183.091,812.486,183.091z"/>
	</g>
	<g>
		<path fill="#2D2D2D" d="M812.486,173.652l-6.839-0.047v-6.837h-8.239l-0.048,6.837h-6.838v8.24l6.838,0.046v6.84h8.24
			c0.038,0,0.054-0.017,0.054-0.017l-0.006-6.823h6.839V173.652z M796.211,180.252l-3.986-2.35l3.986-2.35V180.252z
			 M801.453,187.129l-2.35-3.985h4.699L801.453,187.129z M799.103,172.661l2.35-3.985l2.35,3.985H799.103z M806.695,180.252v-4.699
			l3.985,2.35L806.695,180.252z"/>
	</g>
	<g>
		<path fill="#2D2D2D" d="M887.126,147.207v-0.173h-89.693v0.128c-15.167,1.368-27.054,14.109-27.054,29.63
			c0,16.436,13.324,29.76,29.76,29.76c7.431,0,14.221-2.729,19.436-7.232h44.913c5.214,4.504,12.003,7.232,19.435,7.232
			c16.436,0,29.76-13.324,29.76-29.76C913.683,161.439,902.056,148.806,887.126,147.207z M801.504,194.411
			c-9.475,0-17.183-7.708-17.183-17.182c0-9.473,7.708-17.182,17.183-17.182c9.474,0,17.183,7.709,17.183,17.182
			C818.687,186.702,810.978,194.411,801.504,194.411z M840.058,179.987c0,0.343-0.278,0.621-0.621,0.621h-11.934
			c-0.343,0-0.621-0.278-0.621-0.621v-1.618c0-0.344,0.278-0.621,0.621-0.621h11.934c0.343,0,0.621,0.277,0.621,0.621V179.987z
			 M856.798,179.987c0,0.343-0.277,0.621-0.62,0.621h-11.935c-0.344,0-0.621-0.278-0.621-0.621v-1.618
			c0-0.344,0.277-0.621,0.621-0.621h11.935c0.343,0,0.62,0.277,0.62,0.621V179.987z M883.613,201.614
			c-13.447,0-24.387-10.938-24.387-24.386c0-13.446,10.94-24.386,24.387-24.386S908,163.783,908,177.229
			C908,190.677,897.06,201.614,883.613,201.614z"/>
	</g>
	<g>
		<path fill="#2D2D2D" d="M781.777,149.559c-0.274,0-0.547-0.121-0.73-0.354c-0.318-0.403-0.249-0.987,0.154-1.305
			c0.34-0.268,8.416-6.555,17.316-6.555h18.755c0.513,0,0.93,0.417,0.93,0.931c0,0.512-0.417,0.929-0.93,0.929h-18.755
			c-8.262,0-16.087,6.094-16.165,6.155C782.183,149.494,781.979,149.559,781.777,149.559z"/>
	</g>
	<g>
		<path fill="#2D2D2D" d="M901.902,149.559c0.275,0,0.547-0.121,0.73-0.354c0.319-0.403,0.25-0.987-0.155-1.305
			c-0.338-0.268-8.415-6.555-17.315-6.555h-18.755c-0.514,0-0.93,0.417-0.93,0.931c0,0.512,0.417,0.929,0.93,0.929h18.755
			c8.262,0,16.086,6.094,16.164,6.155C901.497,149.494,901.701,149.559,901.902,149.559z"/>
	</g>
	<g>
		<path fill="#2D2D2D" d="M883.613,155.322c-12.08,0-21.908,9.827-21.908,21.906c0,12.078,9.828,21.906,21.908,21.906
			c12.079,0,21.907-9.829,21.907-21.906C905.52,165.149,895.692,155.322,883.613,155.322z M884.455,160.985
			c3.073,0,5.563,2.49,5.563,5.563c0,3.072-2.491,5.562-5.563,5.562c-3.072,0-5.563-2.49-5.563-5.562
			C878.892,163.476,881.383,160.985,884.455,160.985z M872.539,183.434c-3.072,0-5.564-2.491-5.564-5.564
			c0-3.075,2.492-5.563,5.564-5.563c3.073,0,5.564,2.489,5.564,5.563C878.103,180.943,875.612,183.434,872.539,183.434z
			 M882.971,193.864c-3.073,0-5.563-2.491-5.563-5.563c0-3.074,2.49-5.564,5.563-5.564c3.073,0,5.564,2.49,5.564,5.564
			C888.535,191.374,886.044,193.864,882.971,193.864z M894.886,182.54c-3.072,0-5.563-2.49-5.563-5.561
			c0-3.073,2.491-5.565,5.563-5.565c3.073,0,5.564,2.492,5.564,5.565C900.45,180.05,897.959,182.54,894.886,182.54z"/>
	</g>
</g>
<g>
	<circle fill-rule="evenodd" clip-rule="evenodd" fill="#2D2D2D" cx="1154.439" cy="147.74" r="2.525"/>
	<circle fill-rule="evenodd" clip-rule="evenodd" fill="#2D2D2D" cx="1128.835" cy="147.74" r="2.525"/>
	<path fill-rule="evenodd" clip-rule="evenodd" fill="#2D2D2D" d="M1161.035,165.224c-5.86,0-10.628,4.767-10.628,10.626
		c0,5.861,4.768,10.627,10.628,10.627c5.859,0,10.627-4.767,10.627-10.627C1171.662,169.991,1166.895,165.224,1161.035,165.224z
		 M1170.474,175.893c-0.056,4.61-3.371,8.414-8,9.177c-4.882,0.805-9.641-2.338-10.755-7.101c-1.14-4.873,1.728-9.723,6.581-11.129
		c5.101-1.475,10.43,1.46,11.845,6.53C1170.375,174.195,1170.469,175.039,1170.474,175.893z"/>
	<path fill-rule="evenodd" clip-rule="evenodd" fill="#2D2D2D" d="M1106.051,141.83c-5.86,0-10.628,4.769-10.628,10.628
		s4.768,10.626,10.628,10.626c5.859,0,10.626-4.767,10.626-10.626S1111.91,141.83,1106.051,141.83z M1107.771,161.696
		c-4.251,0.757-8.512-1.397-10.339-5.283c-2.281-4.85-0.027-10.553,5.015-12.605c5.356-2.182,11.34,0.792,12.811,6.253
		c0.21,0.779,0.271,1.599,0.402,2.398C1115.581,157.016,1112.278,160.894,1107.771,161.696z"/>
	<path fill-rule="evenodd" clip-rule="evenodd" fill="#2D2D2D" d="M1125.686,167.12c0,2.234,0,4.467,0,6.729c2.315,0,4.6,0,6.889,0
		C1132.125,170.98,1128.184,167.145,1125.686,167.12z"/>
	<path fill-rule="evenodd" clip-rule="evenodd" fill="#2D2D2D" d="M1125.671,179.247c0,2.198,0,4.403,0,6.647
		c2.759-0.289,6.686-4.145,6.869-6.705C1131.691,179.081,1126.057,179.124,1125.671,179.247z"/>
	<path fill-rule="evenodd" clip-rule="evenodd" fill="#2D2D2D" d="M1120.303,173.785c0-2.217,0-4.437,0-6.658
		c-2.569,0.138-6.536,4.054-6.803,6.69C1114.05,173.934,1119.906,173.911,1120.303,173.785z"/>
	<path fill-rule="evenodd" clip-rule="evenodd" fill="#2D2D2D" d="M1120.311,185.85c0-2.204,0-4.407,0-6.671
		c-2.304,0-4.555,0-6.81,0C1113.836,181.884,1117.932,185.889,1120.311,185.85z"/>
	<polygon fill-rule="evenodd" clip-rule="evenodd" fill="#2D2D2D" points="1124.768,169.925 1122.958,169.927 1121.15,169.927 
		1122.053,168.527 1122.957,167.127 1123.862,168.526 	"/>
	<polygon fill-rule="evenodd" clip-rule="evenodd" fill="#2D2D2D" points="1124.768,183.052 1122.958,183.051 1121.15,183.05 
		1122.053,184.45 1122.957,185.85 1123.862,184.451 	"/>
	<polygon fill-rule="evenodd" clip-rule="evenodd" fill="#2D2D2D" points="1129.522,178.298 1129.521,176.489 1129.52,174.679 
		1130.92,175.583 1132.32,176.487 1130.922,177.392 	"/>
	<polygon fill-rule="evenodd" clip-rule="evenodd" fill="#2D2D2D" points="1116.395,178.298 1116.396,176.489 1116.398,174.679 
		1114.997,175.583 1113.597,176.487 1114.996,177.392 	"/>
	<path fill-rule="evenodd" clip-rule="evenodd" fill="#2D2D2D" d="M1206.625,177.021c-0.121-2.876-0.489-5.729-0.862-8.581
		c-0.702-5.368-1.767-10.666-3.065-15.917c-1.272-5.151-2.824-10.212-4.905-15.099c-1.583-3.722-3.451-7.291-5.886-10.539
		c-1.891-2.523-4.068-4.754-6.743-6.465c-2.307-1.474-4.816-2.39-7.533-2.733c-0.339-0.044-0.677-0.086-1.015-0.129
		c-0.797,0-1.594,0-2.39,0c-0.391,0.058-0.78,0.121-1.17,0.172c-2.442,0.324-4.569,1.354-6.436,2.927
		c-1.232,1.037-2.414,2.133-3.627,3.194c-4.165,3.646-9.857,4.634-15.209,5c-4.154,0.283-8.391,0.29-12.549,0.099
		c-3.933-0.181-7.929-0.83-11.364-2.885c-1.312-0.785-2.494-1.738-3.63-2.752c-0.945-0.844-1.877-1.704-2.843-2.524
		c-1.755-1.491-3.726-2.556-6.017-2.961c-0.428-0.075-0.86-0.114-1.291-0.175c-0.138-0.02-0.273-0.062-0.41-0.094
		c-0.834,0-1.666,0-2.499,0c-0.372,0.052-0.745,0.105-1.117,0.153c-3.878,0.508-7.195,2.208-10.103,4.771
		c-2.412,2.127-4.351,4.646-6.034,7.37c-2.265,3.666-3.996,7.583-5.459,11.624c-1.829,5.044-3.2,10.216-4.341,15.453
		c-0.759,3.485-1.437,6.983-1.921,10.515c-0.399,2.904-0.732,5.819-1.029,8.734c-0.473,4.652-0.64,9.32-0.509,13.995
		c0.11,4.041,0.475,8.057,1.392,12.006c0.542,2.335,1.271,4.604,2.409,6.726c0.827,1.543,1.841,2.945,3.19,4.083
		c2.21,1.864,4.787,2.56,7.63,2.344c1.595-0.122,3.135-0.513,4.651-1.027c1.106-0.374,2.116-0.936,3.122-1.508
		c6.21-3.54,12.406-7.1,18.623-10.627c3.84-2.178,7.703-4.318,11.688-6.222c0.961-0.458,1.958-0.845,2.943-1.251
		c0.527-0.216,1.081-0.277,1.649-0.275c5.215,0.005,10.429,0.011,15.645-0.006c0.87-0.004,1.698,0.123,2.48,0.483
		c1.709,0.785,3.431,1.547,5.105,2.401c4.738,2.418,9.356,5.063,13.975,7.7c4.558,2.603,9.116,5.203,13.658,7.832
		c1.9,1.101,3.902,1.893,6.068,2.254c2.69,0.449,5.268,0.204,7.64-1.268c1.313-0.815,2.373-1.893,3.27-3.14
		c1.26-1.753,2.129-3.697,2.804-5.733c0.891-2.688,1.44-5.454,1.788-8.26c0.1-0.809,0.151-1.622,0.23-2.432
		c0.01-0.102,0.059-0.2,0.09-0.301c0-5.505,0-11.011,0-16.516C1206.686,177.296,1206.631,177.16,1206.625,177.021z M1128.89,144.75
		c1.649,0,2.99,1.341,2.99,2.99c0,1.649-1.341,2.99-2.99,2.99c-1.647,0-2.989-1.341-2.989-2.99
		C1125.9,146.092,1127.242,144.75,1128.89,144.75z M1093.734,152.458c0-6.803,5.514-12.317,12.317-12.317
		s12.317,5.514,12.317,12.317s-5.514,12.317-12.317,12.317S1093.734,159.26,1093.734,152.458z M1122.958,188.266
		c-6.505,0-11.776-5.273-11.776-11.777c0-6.504,5.271-11.777,11.776-11.777c6.504,0,11.777,5.272,11.777,11.777
		C1134.735,182.993,1129.463,188.266,1122.958,188.266z M1141.767,153.875c-3.041,0-5.503-2.465-5.503-5.505
		c0-3.04,2.463-5.504,5.503-5.504c3.039,0,5.503,2.465,5.503,5.504C1147.271,151.41,1144.806,153.875,1141.767,153.875z
		 M1176.695,144.79c2.068-0.013,3.73,1.592,3.757,3.625c0.026,2.063-1.616,3.716-3.706,3.73c-2.088,0.015-3.76-1.622-3.76-3.679
		C1172.987,146.432,1174.628,144.804,1176.695,144.79z M1169.242,152.154c2.054,0.003,3.718,1.637,3.736,3.665
		c0.019,2.04-1.662,3.699-3.745,3.698c-2.069,0-3.717-1.617-3.726-3.654C1165.497,153.808,1167.167,152.149,1169.242,152.154z
		 M1154.393,144.75c1.649,0,2.99,1.341,2.99,2.99c0,1.649-1.341,2.99-2.99,2.99c-1.647,0-2.989-1.341-2.989-2.99
		C1151.404,146.092,1152.746,144.75,1154.393,144.75z M1161.035,188.167c-6.803,0-12.317-5.513-12.317-12.317
		c0-6.802,5.514-12.316,12.317-12.316c6.802,0,12.316,5.514,12.316,12.316C1173.351,182.654,1167.837,188.167,1161.035,188.167z
		 M1176.676,166.897c-2.051-0.016-3.698-1.668-3.689-3.7c0.011-2.048,1.712-3.704,3.778-3.675c2.055,0.027,3.698,1.679,3.688,3.708
		C1180.442,165.287,1178.768,166.913,1176.676,166.897z M1184.16,159.518c-2.05-0.015-3.714-1.676-3.701-3.694
		c0.014-2.022,1.682-3.661,3.736-3.669c2.072-0.009,3.748,1.65,3.741,3.704C1187.928,157.916,1186.26,159.534,1184.16,159.518z"/>
</g>
<g>
	<path fill="#2D2D2D" d="M95.633,163.616h-7.517l-0.043,6.237h-6.239v7.517l6.239,0.043v6.238h7.516
		c0.035,0,0.048-0.017,0.048-0.017l-0.004-6.221h6.238v-7.516l-6.238-0.044V163.616z M87.024,175.916l-3.635-2.143l3.635-2.144
		V175.916z M91.806,182.19l-2.144-3.635h4.286L91.806,182.19z M89.663,168.992l2.144-3.635l2.142,3.635H89.663z M96.588,171.629
		l3.635,2.144l-3.635,2.143V171.629z"/>
	<path fill="#2D2D2D" d="M84.657,133.839c-4.775,0-8.659,3.885-8.659,8.659c0,4.776,3.885,8.661,8.659,8.661
		c4.776,0,8.66-3.885,8.66-8.661C93.317,137.724,89.432,133.839,84.657,133.839z M84.657,149.658c-3.948,0-7.159-3.212-7.159-7.16
		c0-3.947,3.211-7.158,7.159-7.158c3.947,0,7.158,3.211,7.158,7.158C91.815,146.446,88.604,149.658,84.657,149.658z"/>
	<path fill="#2D2D2D" d="M178.977,127.048l-12.947-3.18c-8.321-12.724-22.32-21.08-38.189-21.08
		c-15.672,0-29.513,8.154-37.87,20.611l-14.855,3.649c0,0-8.49,14.65-4.556,47.191c3.58,29.616,10.639,47.038,16.111,51.749
		c0,0,4.516,4.774,8.462-16.436c4.416-1.893,10.859-3.477,18.38-4.37c0.174-0.003,0.344-0.002,0.536-0.024
		c4.393-0.514,8.764-0.748,12.998-0.753c4.235,0.005,8.608,0.239,13,0.753c0.192,0.022,0.362,0.021,0.536,0.024
		c7.521,0.893,13.964,2.477,18.379,4.37c3.947,21.21,8.462,16.436,8.462,16.436c5.471-4.711,12.531-22.133,16.111-51.749
		C187.467,141.698,178.977,127.048,178.977,127.048z M74.695,142.498c0-5.492,4.47-9.961,9.962-9.961
		c5.493,0,9.962,4.469,9.962,9.961c0,5.493-4.469,9.963-9.962,9.963C79.165,152.461,74.695,147.991,74.695,142.498z M102.964,177.37
		c0,0.625-0.491,1.136-1.094,1.136h-5.145v5.145c0,0.604-0.51,1.094-1.137,1.094h-7.473c-0.626,0-1.137-0.49-1.137-1.094v-5.145
		h-5.145c-0.603,0-1.093-0.511-1.093-1.136v-7.473c0-0.626,0.49-1.136,1.093-1.136h5.145v-5.145c0-0.603,0.511-1.093,1.137-1.093
		h7.473c0.626,0,1.137,0.49,1.137,1.093v5.145h5.145c0.603,0,1.094,0.51,1.094,1.136V177.37z M126.43,198.151
		c-2.695,0-4.881-2.186-4.881-4.882c0-2.697,2.186-4.882,4.881-4.882c2.697,0,4.883,2.186,4.883,4.882
		C131.313,195.965,129.127,198.151,126.43,198.151z M141.077,147.219c0,0.897-0.729,1.626-1.627,1.626h-24.572
		c-0.898,0-1.627-0.729-1.627-1.626v-30.919c0-0.898,0.729-1.628,1.627-1.628h24.572c0.898,0,1.627,0.73,1.627,1.628V147.219z
		 M153.938,158.44c-2.427,0-4.394-1.967-4.394-4.393c0-2.425,1.967-4.394,4.394-4.394c2.427,0,4.394,1.968,4.394,4.394
		C158.333,156.474,156.365,158.44,153.938,158.44z M164.511,169.011c-2.427,0-4.394-1.967-4.394-4.393
		c0-2.426,1.968-4.393,4.394-4.393c2.426,0,4.394,1.967,4.394,4.393C168.905,167.044,166.937,169.011,164.511,169.011z
		 M164.511,147.87c-2.427,0-4.394-1.967-4.394-4.394c0-2.427,1.968-4.394,4.394-4.394c2.426,0,4.394,1.967,4.394,4.394
		C168.905,145.902,166.937,147.87,164.511,147.87z M175.083,158.44c-2.427,0-4.394-1.967-4.394-4.393
		c0-2.425,1.967-4.394,4.394-4.394c2.427,0,4.394,1.968,4.394,4.394C179.476,156.474,177.509,158.44,175.083,158.44z"/>
	<rect x="115.203" y="116.625" fill="#2D2D2D" width="23.921" height="30.268"/>
</g>
<g>
	<g>
		<path fill="#2D2D2D" d="M962.824,138.306c-7.255,0-13.156,5.901-13.156,13.156c0,7.254,5.901,13.155,13.156,13.155
			c7.253,0,13.154-5.901,13.154-13.155C975.979,144.208,970.078,138.306,962.824,138.306z M962.863,163.871
			c-6.819,0-12.368-5.548-12.368-12.368c0-6.82,5.548-12.369,12.368-12.369c6.821,0,12.369,5.549,12.369,12.369
			C975.232,158.323,969.685,163.871,962.863,163.871z"/>
	</g>
	<g>
		<polygon fill="#2D2D2D" points="958.355,153.926 958.355,150.16 955.162,152.043 		"/>
		<polygon fill="#2D2D2D" points="960.94,147.843 964.706,147.843 962.823,144.65 		"/>
		<polygon fill="#2D2D2D" points="967.023,150.16 967.023,153.926 970.216,152.043 		"/>
		<polygon fill="#2D2D2D" points="962.823,159.436 964.706,156.243 960.94,156.243 		"/>
		<g>
			<path fill="#2D2D2D" d="M967.144,143.12c0-0.53-0.448-0.96-0.998-0.96h-6.564c-0.549,0-0.998,0.43-0.998,0.96v4.521h-4.52
				c-0.528,0-0.96,0.448-0.96,0.998v6.564c0,0.551,0.432,0.998,0.96,0.998h4.52v4.52c0,0.53,0.449,0.961,0.998,0.961h6.564
				c0.55,0,0.998-0.431,0.998-0.961v-4.52h4.521c0.528,0,0.959-0.447,0.959-0.998v-6.564c0-0.55-0.432-0.998-0.959-0.998h-4.521
				V143.12z M971.665,148.638v6.603h-5.48l0.004,5.466c0,0-0.013,0.014-0.043,0.014h-6.602v-5.479l-5.48-0.038V148.6h5.48
				l0.038-5.48h6.603v5.48L971.665,148.638z"/>
		</g>
	</g>
	<g>
		<path fill="#2D2D2D" d="M997.109,173.437c-2.025,0-3.674,1.649-3.674,3.675c0,2.027,1.649,3.674,3.674,3.674
			c2.026,0,3.676-1.647,3.676-3.674C1000.785,175.085,999.136,173.437,997.109,173.437z"/>
		<g>
			<path fill="#2D2D2D" d="M997.109,166.623c-5.783,0-10.488,4.705-10.488,10.489c0,5.783,4.705,10.488,10.488,10.488
				c5.784,0,10.49-4.706,10.49-10.488C1007.599,171.328,1002.894,166.623,997.109,166.623z M997.109,182.389
				c-2.91,0-5.277-2.366-5.277-5.277c0-2.91,2.367-5.277,5.277-5.277c2.911,0,5.278,2.368,5.278,5.277
				C1002.388,180.022,1000.021,182.389,997.109,182.389z"/>
		</g>
	</g>
	<path fill="#2D2D2D" d="M1039.523,145.644c-0.434-0.778-1.043-1.444-1.777-1.942c-0.543,0.979-1.584,1.641-2.783,1.641
		c-1.34,0-2.486-0.832-2.954-2.005c-0.916,0.463-1.688,1.166-2.235,2.028c1.291,0.405,2.227,1.611,2.227,3.037
		c0,1.423-0.936,2.63-2.227,3.035c0.541,0.854,1.302,1.549,2.204,2.013c0.447-1.216,1.613-2.086,2.984-2.086
		c1.226,0,2.289,0.694,2.82,1.709c0.716-0.496,1.314-1.151,1.741-1.916c-0.954-0.549-1.598-1.576-1.598-2.755
		C1037.926,147.221,1038.569,146.193,1039.523,145.644z"/>
	<g>
		<path fill="#2D2D2D" d="M1045.644,141.648c-1.96-11.937-22.805-12.65-28.506-13.185c-0.651-3.748-8.898-4.514-10.304-4.618v-0.014
			h-0.208h-19.032h-0.208v0.014c-1.406,0.104-9.653,0.87-10.304,4.618c-5.701,0.535-26.545,1.248-28.505,13.185
			c-2.673,8.373-7.839,26.723-3.563,50.598c0,0,4.632,17.281,14.61,5.344c0,0,5.344-17.815,6.235-20.667
			c0.891-2.85,3.024-3.385,6.77-3.385c6.058,0,9.264,3.028,9.621,11.046c0,0,4.958,36.393,13.859,39.293l0.007,0.082
			c0.337,0.083,0.668,0.114,0.995,0.101c0.328,0.013,0.659-0.018,0.995-0.101l0.008-0.082c8.901-2.9,13.859-39.293,13.859-39.293
			c0.357-8.018,3.563-11.046,9.621-11.046c3.746,0,5.879,0.535,6.77,3.385c0.891,2.852,6.236,20.667,6.236,20.667
			c9.976,11.937,14.61-5.344,14.61-5.344C1053.483,168.371,1048.316,150.021,1045.644,141.648z M962.824,165.687
			c-7.844,0-14.225-6.381-14.225-14.224c0-7.844,6.381-14.224,14.225-14.224c7.843,0,14.224,6.38,14.224,14.224
			C977.048,159.306,970.667,165.687,962.824,165.687z M997.109,150.16c2.422,0,4.384,1.963,4.384,4.384
			c0,2.422-1.962,4.385-4.384,4.385c-2.421,0-4.383-1.963-4.383-4.385C992.726,152.124,994.688,150.16,997.109,150.16z
			 M997.109,189.738c-6.962,0-12.626-5.664-12.626-12.627s5.664-12.627,12.626-12.627c6.964,0,12.627,5.664,12.627,12.627
			S1004.073,189.738,997.109,189.738z M1018.578,159.286c-2.618,0-4.741-2.123-4.741-4.741c0-2.618,2.123-4.74,4.741-4.74
			c2.619,0,4.741,2.122,4.741,4.74C1023.319,157.163,1021.197,159.286,1018.578,159.286z M1026.685,167.322
			c-2.619,0-4.742-2.123-4.742-4.741s2.123-4.742,4.742-4.742c2.619,0,4.741,2.124,4.741,4.742S1029.304,167.322,1026.685,167.322z
			 M1041.107,151.583c-0.291,0-0.571-0.042-0.838-0.116c-0.523,0.967-1.285,1.783-2.205,2.377c0.051,0.225,0.08,0.459,0.08,0.7
			c0,1.758-1.424,3.183-3.182,3.183s-3.182-1.425-3.182-3.183c0-0.099,0.006-0.197,0.016-0.293
			c-1.212-0.575-2.217-1.512-2.875-2.674c-0.035,0.001-0.068,0.006-0.104,0.006c-1.757,0-3.181-1.425-3.181-3.182
			c0-1.759,1.424-3.183,3.181-3.183c0.036,0,0.069,0.004,0.104,0.005c0.659-1.166,1.669-2.104,2.884-2.679
			c-0.014-0.127-0.025-0.254-0.025-0.384c0-1.758,1.424-3.182,3.182-3.182s3.182,1.424,3.182,3.182c0,0.271-0.036,0.532-0.102,0.783
			c0.93,0.594,1.701,1.417,2.226,2.391c0.268-0.073,0.548-0.115,0.839-0.115c1.758,0,3.182,1.424,3.182,3.183
			C1044.289,150.158,1042.865,151.583,1041.107,151.583z"/>
	</g>
</g>
</svg>
